SplineFontDB: 3.0
FontName: MTG2016
FullName: MTG2016-Regular
FamilyName: MTG2016
Weight: Book
Copyright: (c)1994-5 by Wizards of the Coast, Inc.  Version 2.5.1.  Parts of this font originally based on Plantin, (c)1992 The Font Company Inc.  For internal use only.
Version: 001.000
ItalicAngle: 0
UnderlinePosition: 0
UnderlineWidth: 0
Ascent: 800
Descent: 200
InvalidEm: 0
sfntRevision: 0x00000000
LayerCount: 2
Layer: 0 1 "Back" 1
Layer: 1 1 "Fore" 0
XUID: [1021 641 -973411773 24992]
StyleMap: 0x0040
FSType: 0
OS2Version: 1
OS2_WeightWidthSlopeOnly: 0
OS2_UseTypoMetrics: 0
CreationTime: 0
ModificationTime: 1532391515
PfmFamily: 17
TTFWeight: 400
TTFWidth: 5
LineGap: 90
VLineGap: 0
Panose: 2 0 5 3 0 0 0 0 0 0
OS2TypoAscent: 800
OS2TypoAOffset: 0
OS2TypoDescent: -200
OS2TypoDOffset: 0
OS2TypoLinegap: 90
OS2WinAscent: 868
OS2WinAOffset: 0
OS2WinDescent: 250
OS2WinDOffset: 0
HheadAscent: 868
HheadAOffset: 0
HheadDescent: -250
HheadDOffset: 0
OS2SubXSize: 650
OS2SubYSize: 699
OS2SubXOff: 0
OS2SubYOff: 140
OS2SupXSize: 650
OS2SupYSize: 699
OS2SupXOff: 0
OS2SupYOff: 479
OS2StrikeYSize: 49
OS2StrikeYPos: 258
OS2Vendor: 'PfEd'
OS2CodePages: 00000001.00000000
OS2UnicodeRanges: 800000af.00002040.00000000.00000000
MarkAttachClasses: 1
DEI: 91125
ShortTable: cvt  2
  33
  633
EndShort
ShortTable: maxp 16
  1
  0
  95
  188
  8
  0
  0
  2
  0
  1
  1
  0
  64
  46
  0
  0
EndShort
LangName: 1033 "" "" "Regular" "FontForge 2.0 : MTG2016-Regular : 30-10-2016"
GaspTable: 1 65535 2 0
Encoding: UnicodeBmp
UnicodeInterp: none
NameList: AGL For New Fonts
DisplaySize: -48
AntiAlias: 1
FitToEm: 0
WinInfo: 39 13 8
BeginChars: 65539 95

StartChar: .notdef
Encoding: 65536 -1 0
Width: 364
Flags: W
LayerCount: 2
Fore
SplineSet
33 0 m 1,0,-1
 33 666 l 1,1,-1
 298 666 l 1,2,-1
 298 0 l 1,3,-1
 33 0 l 1,0,-1
66 33 m 1,4,-1
 265 33 l 1,5,-1
 265 633 l 1,6,-1
 66 633 l 1,7,-1
 66 33 l 1,4,-1
EndSplineSet
EndChar

StartChar: exclam
Encoding: 33 33 4
Width: 875
GlyphClass: 2
Flags: W
LayerCount: 2
Fore
SplineSet
448 75 m 1,0,-1
 448 119 l 1,1,-1
 472 119 l 2,2,3
 496 119 496 119 509 133 c 128,-1,4
 522 147 522 147 522 179 c 2,5,-1
 522 430 l 2,6,7
 522 464 522 464 511 477 c 128,-1,8
 500 490 500 490 482 490 c 2,9,-1
 450 490 l 1,10,-1
 450 534 l 1,11,-1
 468 534 l 2,12,13
 524 534 524 534 576 571 c 1,14,-1
 612 571 l 1,15,-1
 612 179 l 2,16,17
 612 147 612 147 625 133 c 128,-1,18
 638 119 638 119 660 119 c 2,19,-1
 680 119 l 1,20,-1
 680 75 l 1,21,-1
 448 75 l 1,0,-1
194 75 m 1,22,-1
 194 119 l 1,23,-1
 218 119 l 2,24,25
 242 119 242 119 255 133 c 128,-1,26
 268 147 268 147 268 179 c 2,27,-1
 268 430 l 2,28,29
 268 464 268 464 257 477 c 128,-1,30
 246 490 246 490 228 490 c 2,31,-1
 196 490 l 1,32,-1
 196 534 l 1,33,-1
 214 534 l 2,34,35
 270 534 270 534 322 571 c 1,36,-1
 358 571 l 1,37,-1
 358 179 l 2,38,39
 358 147 358 147 371 133 c 128,-1,40
 384 119 384 119 406 119 c 2,41,-1
 426 119 l 1,42,-1
 426 75 l 1,43,-1
 194 75 l 1,22,-1
EndSplineSet
EndChar

StartChar: numbersign
Encoding: 35 35 5
Width: 875
GlyphClass: 2
Flags: W
LayerCount: 2
Fore
SplineSet
380 119 m 1,0,-1
 400 146 l 1,1,2
 430 132 430 132 451 127 c 128,-1,3
 472 122 472 122 489 122 c 0,4,5
 541 122 541 122 582 155 c 0,6,7
 623 190 623 190 623 237 c 0,8,9
 623 270 623 270 603.5 292 c 128,-1,10
 584 314 584 314 553 314 c 0,11,12
 540 314 540 314 523 307.5 c 128,-1,13
 506 301 506 301 478 284 c 1,14,-1
 457 322 l 1,15,-1
 474 331 l 2,16,17
 497 344 497 344 517 357.5 c 128,-1,18
 537 371 537 371 556 385 c 0,19,20
 591 411 591 411 591 440 c 0,21,22
 591 460 591 460 575.5 473.5 c 128,-1,23
 560 487 560 487 540 487 c 0,24,25
 514 487 514 487 485.5 471 c 128,-1,26
 457 455 457 455 419 416 c 1,27,-1
 385 441 l 1,28,29
 425 498 425 498 467 523 c 128,-1,30
 509 548 509 548 560 548 c 0,31,32
 605 548 605 548 637 526 c 0,33,34
 675 500 675 500 675 458 c 0,35,36
 675 428 675 428 649 399 c 0,37,38
 644 395 644 395 637 388.5 c 128,-1,39
 630 382 630 382 613 369 c 1,40,41
 639 361 639 361 653.5 353 c 128,-1,42
 668 345 668 345 679 332 c 0,43,44
 709 297 709 297 709 253 c 0,45,46
 709 176 709 176 641 125 c 0,47,48
 610 102 610 102 576 89.5 c 128,-1,49
 542 77 542 77 500 77 c 0,50,51
 465 77 465 77 436 85 c 0,52,53
 412 91 412 91 388 105 c 1,54,-1
 388 76 l 1,55,-1
 166 76 l 1,56,-1
 166 119 l 1,57,-1
 189 119 l 2,58,59
 213 119 213 119 225 131.5 c 128,-1,60
 237 144 237 144 237 175 c 2,61,-1
 237 414 l 2,62,63
 237 446 237 446 226.5 458.5 c 128,-1,64
 216 471 216 471 198 471 c 2,65,-1
 168 471 l 1,66,-1
 168 514 l 1,67,-1
 186 514 l 2,68,69
 239 514 239 514 288 549 c 1,70,-1
 322 549 l 1,71,-1
 322 175 l 2,72,73
 322 144 322 144 334 131.5 c 128,-1,74
 346 119 346 119 369 119 c 2,75,-1
 380 119 l 1,0,-1
EndSplineSet
EndChar

StartChar: dollar
Encoding: 36 36 6
Width: 875
GlyphClass: 2
Flags: W
LayerCount: 2
Fore
SplineSet
707 207 m 1,0,-1
 648 207 l 1,1,-1
 648 177 l 2,2,3
 648 145 648 145 658 133.5 c 128,-1,4
 668 122 668 122 685 122 c 2,5,-1
 708 122 l 1,6,-1
 708 79 l 1,7,-1
 497 79 l 1,8,-1
 497 122 l 1,9,-1
 522 122 l 2,10,11
 539 122 539 122 549 133.5 c 128,-1,12
 559 145 559 145 559 176 c 2,13,-1
 559 207 l 1,14,-1
 367 207 l 1,15,-1
 367 257 l 1,16,-1
 575 548 l 1,17,-1
 648 548 l 1,18,-1
 648 252 l 1,19,20
 662 267 662 267 667.5 277.5 c 128,-1,21
 673 288 673 288 678 302 c 1,22,-1
 722 302 l 1,23,-1
 707 207 l 1,0,-1
153 76 m 1,24,-1
 153 119 l 1,25,-1
 176 119 l 2,26,27
 199 119 199 119 211.5 132 c 128,-1,28
 224 145 224 145 224 176 c 2,29,-1
 224 418 l 2,30,31
 224 450 224 450 213.5 462.5 c 128,-1,32
 203 475 203 475 185 475 c 2,33,-1
 155 475 l 1,34,-1
 155 518 l 1,35,-1
 173 518 l 2,36,37
 226 518 226 518 276 554 c 1,38,-1
 311 554 l 1,39,-1
 311 176 l 2,40,41
 311 145 311 145 323 132 c 128,-1,42
 335 119 335 119 358 119 c 2,43,-1
 377 119 l 1,44,-1
 377 76 l 1,45,-1
 153 76 l 1,24,-1
575 466 m 1,46,-1
 433 263 l 1,47,-1
 575 263 l 1,48,-1
 575 466 l 1,46,-1
EndSplineSet
EndChar

StartChar: percent
Encoding: 37 37 7
Width: 875
GlyphClass: 2
Flags: W
LayerCount: 2
Fore
SplineSet
392 120 m 1,0,-1
 398 132 l 1,1,2
 426 124 426 124 443 121.5 c 128,-1,3
 460 119 460 119 474 119 c 0,4,5
 532 119 532 119 576 156 c 0,6,7
 620 194 620 194 620 248 c 0,8,9
 620 296 620 296 588 325.5 c 128,-1,10
 556 355 556 355 508 355 c 0,11,12
 486 355 486 355 465 347.5 c 128,-1,13
 444 340 444 340 420 322 c 1,14,-1
 388 327 l 1,15,-1
 446 562 l 1,16,-1
 646 562 l 2,17,18
 650 562 650 562 656 563 c 0,19,20
 660 564 660 564 664 566 c 128,-1,21
 668 568 668 568 672 570 c 2,22,-1
 714 570 l 1,23,-1
 696 486 l 1,24,-1
 474 486 l 1,25,-1
 460 416 l 1,26,27
 484 424 484 424 500 426 c 128,-1,28
 516 428 516 428 530 428 c 0,29,30
 606 428 606 428 658 379 c 0,31,32
 710 331 710 331 710 257 c 0,33,34
 710 173 710 173 642 120 c 0,35,36
 580 73 580 73 492 73 c 0,37,38
 468 73 468 73 442 77 c 0,39,40
 420 79 420 79 392 87 c 1,41,-1
 392 76 l 1,42,-1
 160 76 l 1,43,-1
 160 120 l 1,44,-1
 184 120 l 2,45,46
 208 120 208 120 221 133.5 c 128,-1,47
 234 147 234 147 234 179 c 2,48,-1
 234 431 l 2,49,50
 234 465 234 465 223 478 c 128,-1,51
 212 491 212 491 194 491 c 2,52,-1
 162 491 l 1,53,-1
 162 535 l 1,54,-1
 180 535 l 2,55,56
 236 535 236 535 288 572 c 1,57,-1
 324 572 l 1,58,-1
 324 179 l 2,59,60
 324 147 324 147 337 133.5 c 128,-1,61
 350 120 350 120 372 120 c 2,62,-1
 392 120 l 1,0,-1
EndSplineSet
EndChar

StartChar: ampersand
Encoding: 38 38 8
Width: 875
GlyphClass: 2
Flags: W
LayerCount: 2
Fore
SplineSet
683 456 m 0,0,1
 649 393 649 393 620 305 c 0,2,3
 599 242 599 242 588.5 188 c 128,-1,4
 578 134 578 134 576 79 c 1,5,-1
 486 79 l 1,6,-1
 486 96 l 2,7,8
 486 166 486 166 529 262 c 0,9,10
 558 328 558 328 586 380.5 c 128,-1,11
 614 433 614 433 643 481 c 1,12,-1
 496 481 l 2,13,14
 464 481 464 481 448 468.5 c 128,-1,15
 432 456 432 456 421 419 c 1,16,-1
 374 419 l 1,17,-1
 408 564 l 1,18,-1
 437 564 l 1,19,20
 451 557 451 557 488 557 c 2,21,-1
 714 557 l 1,22,-1
 714 509 l 1,23,24
 706 498 706 498 699 485.5 c 128,-1,25
 692 473 692 473 683 456 c 0,0,1
161 82 m 1,26,-1
 161 125 l 1,27,-1
 185 125 l 2,28,29
 208 125 208 125 220.5 138 c 128,-1,30
 233 151 233 151 233 182 c 2,31,-1
 233 426 l 2,32,33
 233 459 233 459 222 471.5 c 128,-1,34
 211 484 211 484 193 484 c 2,35,-1
 163 484 l 1,36,-1
 163 527 l 1,37,-1
 181 527 l 2,38,39
 235 527 235 527 285 563 c 1,40,-1
 320 563 l 1,41,-1
 320 182 l 2,42,43
 320 151 320 151 332 138 c 128,-1,44
 344 125 344 125 367 125 c 2,45,-1
 386 125 l 1,46,-1
 386 82 l 1,47,-1
 161 82 l 1,26,-1
EndSplineSet
EndChar

StartChar: parenleft
Encoding: 40 40 9
Width: 875
GlyphClass: 2
Flags: W
LayerCount: 2
Fore
SplineSet
634 163 m 0,0,1
 596 125 596 125 546 104.5 c 128,-1,2
 496 84 496 84 424 82 c 1,3,-1
 424 125 l 1,4,5
 450 127 450 127 464 128.5 c 128,-1,6
 478 130 478 130 488 133 c 0,7,8
 532 146 532 146 564 177.5 c 128,-1,9
 596 209 596 209 616 270 c 1,10,11
 584 250 584 250 562 243 c 128,-1,12
 540 236 540 236 520 236 c 0,13,14
 454 236 454 236 414 287 c 0,15,16
 380 331 380 331 380 393 c 0,17,18
 380 462 380 462 420 514 c 0,19,20
 466 573 466 573 538 573 c 0,21,22
 622 573 622 573 670 503 c 0,23,24
 716 441 716 441 716 361 c 0,25,26
 716 244 716 244 634 163 c 0,0,1
160 84 m 1,27,-1
 160 128 l 1,28,-1
 184 128 l 2,29,30
 206 128 206 128 219 141 c 128,-1,31
 232 154 232 154 232 186 c 2,32,-1
 232 435 l 2,33,34
 232 468 232 468 221 481 c 128,-1,35
 210 494 210 494 192 494 c 2,36,-1
 162 494 l 1,37,-1
 162 538 l 1,38,-1
 180 538 l 2,39,40
 208 538 208 538 234 546.5 c 128,-1,41
 260 555 260 555 286 574 c 1,42,-1
 320 574 l 1,43,-1
 320 186 l 2,44,45
 320 154 320 154 333 141 c 128,-1,46
 346 128 346 128 370 128 c 2,47,-1
 390 128 l 1,48,-1
 390 84 l 1,49,-1
 160 84 l 1,27,-1
606 470 m 0,50,51
 594 499 594 499 577 512 c 128,-1,52
 560 525 560 525 540 525 c 0,53,54
 502 525 502 525 486 489 c 0,55,56
 470 456 470 456 470 414 c 0,57,58
 470 366 470 366 484 332 c 0,59,60
 494 310 494 310 508 300.5 c 128,-1,61
 522 291 522 291 542 291 c 0,62,63
 564 291 564 291 585 303.5 c 128,-1,64
 606 316 606 316 624 345 c 0,65,66
 626 353 626 353 626 360 c 2,67,-1
 626 371 l 2,68,69
 626 429 626 429 606 470 c 0,50,51
EndSplineSet
EndChar

StartChar: parenright
Encoding: 41 41 10
Width: 875
GlyphClass: 2
Flags: W
LayerCount: 2
Fore
SplineSet
622 517 m 0,0,1
 586 517 586 517 565 479 c 128,-1,2
 544 441 544 441 544 351 c 2,3,-1
 544 337 l 2,4,5
 544 300 544 300 548 268.5 c 128,-1,6
 552 237 552 237 560 210 c 0,7,8
 573 165 573 165 590.5 146.5 c 128,-1,9
 608 128 608 128 630 128 c 0,10,11
 667 128 667 128 689 168 c 128,-1,12
 711 208 711 208 711 301 c 0,13,14
 711 416 711 416 687.5 466.5 c 128,-1,15
 664 517 664 517 622 517 c 0,0,1
470 219 m 1,16,17
 456 261 456 261 456 311 c 0,18,19
 456 353 456 353 465 393 c 128,-1,20
 474 433 474 433 493 469 c 0,21,22
 542 563 542 563 629 563 c 0,23,24
 713 563 713 563 761 482 c 0,25,26
 798 421 798 421 798 336 c 0,27,28
 798 248 798 248 761 178 c 0,29,30
 711 86 711 86 626 86 c 0,31,32
 544 86 544 86 495 165 c 0,33,34
 485 182 485 182 477 200 c 1,35,-1
 443 88 l 1,36,-1
 137 88 l 1,37,-1
 137 123 l 1,38,39
 151 139 151 139 174.5 161.5 c 128,-1,40
 198 184 198 184 233 218 c 0,41,42
 254 238 254 238 274 259.5 c 128,-1,43
 294 281 294 281 316 304 c 0,44,45
 336 325 336 325 348 342 c 0,46,47
 359 359 359 359 365.5 376 c 128,-1,48
 372 393 372 393 372 410 c 0,49,50
 372 442 372 442 351 466 c 128,-1,51
 330 490 330 490 299 490 c 0,52,53
 265 490 265 490 237 466.5 c 128,-1,54
 209 443 209 443 183 385 c 1,55,-1
 138 401 l 1,56,57
 169 482 169 482 212.5 520.5 c 128,-1,58
 256 559 256 559 316 559 c 0,59,60
 374 559 374 559 418 520 c 0,61,62
 461 481 461 481 461 423 c 0,63,64
 461 386 461 386 439 351.5 c 128,-1,65
 417 317 417 317 375 283 c 2,66,-1
 319 237 l 2,67,68
 298 220 298 220 278.5 203 c 128,-1,69
 259 186 259 186 233 160 c 1,70,-1
 363 160 l 2,71,72
 394 160 394 160 409 172 c 0,73,74
 415 177 415 177 422 187 c 128,-1,75
 429 197 429 197 439 219 c 1,76,-1
 470 219 l 1,16,17
EndSplineSet
EndChar

StartChar: asterisk
Encoding: 42 42 11
Width: 875
GlyphClass: 2
Flags: W
LayerCount: 2
Fore
SplineSet
658 117 m 0,0,1
 612 83 612 83 546 83 c 256,2,3
 480 83 480 83 434 115 c 0,4,5
 378 152 378 152 378 211 c 0,6,7
 378 272 378 272 438 311 c 0,8,9
 442 314 442 314 449 318.5 c 128,-1,10
 456 323 456 323 472 331 c 1,11,12
 456 342 456 342 448 347.5 c 128,-1,13
 440 353 440 353 434 358 c 0,14,15
 426 364 426 364 420 369.5 c 128,-1,16
 414 375 414 375 410 380 c 0,17,18
 390 406 390 406 390 442 c 0,19,20
 390 497 390 497 440 535 c 0,21,22
 486 569 486 569 546 569 c 0,23,24
 604 569 604 569 648 540 c 0,25,26
 698 508 698 508 698 451 c 0,27,28
 698 422 698 422 681 398.5 c 128,-1,29
 664 375 664 375 622 352 c 1,30,31
 670 323 670 323 691 291 c 128,-1,32
 712 259 712 259 712 220 c 0,33,34
 712 158 712 158 658 117 c 0,0,1
164 85 m 1,35,-1
 164 128 l 1,36,-1
 186 128 l 2,37,38
 210 128 210 128 223 141 c 128,-1,39
 236 154 236 154 236 185 c 2,40,-1
 236 430 l 2,41,42
 236 463 236 463 225 475.5 c 128,-1,43
 214 488 214 488 196 488 c 2,44,-1
 166 488 l 1,45,-1
 166 531 l 1,46,-1
 184 531 l 2,47,48
 238 531 238 531 288 567 c 1,49,-1
 322 567 l 1,50,-1
 322 185 l 2,51,52
 322 154 322 154 334 141 c 128,-1,53
 346 128 346 128 370 128 c 2,54,-1
 390 128 l 1,55,-1
 390 85 l 1,56,-1
 164 85 l 1,35,-1
542 522 m 0,57,58
 512 522 512 522 490 506 c 256,59,60
 468 490 468 490 468 463 c 0,61,62
 468 446 468 446 476 431.5 c 128,-1,63
 484 417 484 417 500 409 c 2,64,-1
 506 406 l 1,65,-1
 572 375 l 1,66,67
 602 389 602 389 615 406.5 c 128,-1,68
 628 424 628 424 628 447 c 0,69,70
 628 481 628 481 603 501.5 c 128,-1,71
 578 522 578 522 542 522 c 0,57,58
518 308 m 1,72,73
 484 291 484 291 469 268.5 c 128,-1,74
 454 246 454 246 454 216 c 0,75,76
 454 174 454 174 481 150 c 128,-1,77
 508 126 508 126 550 126 c 0,78,79
 588 126 588 126 614 145.5 c 128,-1,80
 640 165 640 165 640 199 c 0,81,82
 640 225 640 225 622 246 c 128,-1,83
 604 267 604 267 566 285 c 2,84,-1
 518 308 l 1,72,73
EndSplineSet
EndChar

StartChar: plus
Encoding: 43 43 12
Width: 500
GlyphClass: 2
Flags: W
LayerCount: 2
Fore
SplineSet
11 365 m 1,0,-1
 226 365 l 1,1,-1
 226 566 l 1,2,-1
 273 566 l 1,3,-1
 273 365 l 1,4,-1
 489 365 l 1,5,-1
 489 318 l 1,6,-1
 274 318 l 1,7,-1
 274 117 l 1,8,-1
 227 117 l 1,9,-1
 227 318 l 1,10,-1
 11 318 l 1,11,-1
 11 365 l 1,0,-1
EndSplineSet
EndChar

StartChar: hyphen
Encoding: 45 45 13
Width: 875
GlyphClass: 2
Flags: W
LayerCount: 2
Fore
SplineSet
755 341 m 0,0,1
 755 228 755 228 703 147 c 128,-1,2
 651 66 651 66 572 66 c 0,3,4
 494 66 494 66 442.5 138.5 c 128,-1,5
 391 211 391 211 391 314 c 0,6,7
 391 427 391 427 443.5 509.5 c 128,-1,8
 496 592 496 592 574 592 c 0,9,10
 654 592 654 592 704.5 519.5 c 128,-1,11
 755 447 755 447 755 341 c 0,0,1
395 68 m 1,12,-1
 165 68 l 1,13,-1
 165 116 l 1,14,-1
 189 116 l 2,15,16
 215 116 215 116 226 129 c 128,-1,17
 237 142 237 142 237 176 c 2,18,-1
 237 434 l 2,19,20
 237 469 237 469 228 482 c 128,-1,21
 219 495 219 495 198 495 c 2,22,-1
 167 495 l 1,23,-1
 167 542 l 1,24,-1
 185 542 l 2,25,26
 244 542 244 542 292 580 c 1,27,-1
 327 580 l 1,28,-1
 327 176 l 2,29,30
 327 116 327 116 375 116 c 2,31,-1
 395 116 l 1,32,-1
 395 68 l 1,12,-1
657 303 m 0,33,34
 657 418 657 418 632 476 c 128,-1,35
 607 534 607 534 567 534 c 128,-1,36
 527 534 527 534 507 486 c 0,37,38
 489 442 489 442 489 358 c 0,39,40
 489 222 489 222 523 160 c 0,41,42
 545 120 545 120 576 120 c 0,43,44
 657 120 657 120 657 303 c 0,33,34
EndSplineSet
EndChar

StartChar: period
Encoding: 46 46 14
Width: 510
GlyphClass: 2
Flags: W
LayerCount: 2
Fore
SplineSet
373 256 m 1,0,-1
 255 363 l 1,1,-1
 136 256 l 1,2,-1
 99 282 l 1,3,-1
 163 431 l 1,4,-1
 26 508 l 1,5,-1
 40 553 l 1,6,-1
 195 536 l 1,7,-1
 232 696 l 1,8,-1
 273 696 l 1,9,-1
 308 539 l 1,10,-1
 471 555 l 1,11,-1
 485 508 l 1,12,-1
 350 431 l 1,13,-1
 413 282 l 1,14,-1
 373 256 l 1,0,-1
EndSplineSet
EndChar

StartChar: slash
Encoding: 47 47 15
Width: 0
GlyphClass: 2
Flags: W
LayerCount: 2
Fore
SplineSet
1029 319 m 128,-1,1
 1029 107 1029 107 881 -40 c 128,-1,2
 733 -187 733 -187 521 -187 c 128,-1,3
 309 -187 309 -187 162 -40 c 1,4,-1
 882 678 l 1,5,0
 1029 531 1029 531 1029 319 c 128,-1,1
EndSplineSet
EndChar

StartChar: zero
Encoding: 48 48 16
Width: 875
GlyphClass: 2
Flags: W
LayerCount: 2
Fore
SplineSet
436 12 m 0,0,1
 347 12 347 12 287 96.5 c 128,-1,2
 227 181 227 181 227 301 c 0,3,4
 227 435 227 435 288 530.5 c 128,-1,5
 349 626 349 626 439 626 c 0,6,7
 531 626 531 626 589.5 542 c 128,-1,8
 648 458 648 458 648 333 c 0,9,10
 648 200 648 200 587 106 c 128,-1,11
 526 12 526 12 436 12 c 0,0,1
431 569 m 0,12,13
 378 569 378 569 353 508 c 0,14,15
 331 454 331 454 331 353 c 0,16,17
 331 191 331 191 373 115 c 0,18,19
 401 64 401 64 441 64 c 0,20,21
 544 64 544 64 544 288 c 0,22,23
 544 426 544 426 513.5 497.5 c 128,-1,24
 483 569 483 569 431 569 c 0,12,13
EndSplineSet
EndChar

StartChar: one
Encoding: 49 49 17
Width: 875
GlyphClass: 2
Flags: W
LayerCount: 2
Fore
SplineSet
296 23 m 1,0,-1
 295 89 l 1,1,-1
 329 89 l 2,2,3
 358 89 358 89 370 103.5 c 128,-1,4
 382 118 382 118 382 156 c 2,5,-1
 382 463 l 2,6,7
 382 503 382 503 372 516.5 c 128,-1,8
 362 530 362 530 340 530 c 2,9,-1
 297 530 l 1,10,-1
 297 596 l 1,11,-1
 324 596 l 2,12,13
 348 596 348 596 384 619 c 128,-1,14
 420 642 420 642 450 642 c 2,15,-1
 498 642 l 1,16,-1
 498 156 l 2,17,18
 498 119 498 119 511 104.5 c 128,-1,19
 524 90 524 90 550 90 c 2,20,-1
 580 90 l 1,21,-1
 580 23 l 1,22,-1
 296 23 l 1,0,-1
EndSplineSet
EndChar

StartChar: two
Encoding: 50 50 18
Width: 875
GlyphClass: 2
Flags: W
LayerCount: 2
Fore
SplineSet
360 114 m 1,0,-1
 524 114 l 2,1,2
 562 114 562 114 581 128 c 128,-1,3
 600 142 600 142 619 188 c 1,4,-1
 670 188 l 1,5,-1
 621 23 l 1,6,-1
 247 23 l 1,7,-1
 247 68 l 1,8,9
 282 107 282 107 364 188 c 0,10,11
 424 248 424 248 468 300 c 0,12,13
 537 377 537 377 537 435 c 0,14,15
 537 479 537 479 509.5 510 c 128,-1,16
 482 541 482 541 445 541 c 0,17,18
 356 541 356 541 298 407 c 1,19,-1
 248 426 l 1,20,21
 282 523 282 523 338.5 574.5 c 128,-1,22
 395 626 395 626 466 626 c 0,23,24
 539 626 539 626 590.5 575.5 c 128,-1,25
 642 525 642 525 642 453 c 0,26,27
 642 430 642 430 637 409.5 c 128,-1,28
 632 389 632 389 619.5 368.5 c 128,-1,29
 607 348 607 348 597.5 334 c 128,-1,30
 588 320 588 320 566.5 300 c 128,-1,31
 545 280 545 280 535.5 271 c 128,-1,32
 526 262 526 262 499.5 241 c 128,-1,33
 473 220 473 220 467 215 c 0,34,35
 405 163 405 163 360 114 c 1,0,-1
EndSplineSet
EndChar

StartChar: three
Encoding: 51 51 19
Width: 875
GlyphClass: 2
Flags: W
LayerCount: 2
Fore
SplineSet
538 390 m 1,0,1
 591 386 591 386 627 342.5 c 128,-1,2
 663 299 663 299 663 241 c 0,3,4
 663 147 663 147 585.5 79.5 c 128,-1,5
 508 12 508 12 402 12 c 0,6,7
 308 12 308 12 248 59 c 1,8,-1
 277 99 l 1,9,10
 340 67 340 67 389 67 c 0,11,12
 460 67 460 67 510.5 112.5 c 128,-1,13
 561 158 561 158 561 221 c 0,14,15
 561 264 561 264 534.5 293 c 128,-1,16
 508 322 508 322 470 322 c 0,17,18
 429 322 429 322 376 285 c 1,19,-1
 352 332 l 1,20,21
 441 385 441 385 474 412 c 0,22,23
 519 449 519 449 519 487 c 0,24,25
 519 513 519 513 499.5 531.5 c 128,-1,26
 480 550 480 550 452 550 c 0,27,28
 384 550 384 550 301 457 c 1,29,-1
 261 488 l 1,30,31
 356 626 356 626 478 626 c 0,32,33
 539 626 539 626 579.5 594.5 c 128,-1,34
 620 563 620 563 620 511 c 0,35,36
 620 478 620 478 601.5 451.5 c 128,-1,37
 583 425 583 425 538 390 c 1,0,1
EndSplineSet
EndChar

StartChar: four
Encoding: 52 52 20
Width: 875
GlyphClass: 2
Flags: W
LayerCount: 2
Fore
SplineSet
536 249 m 1,0,1
 550 251 550 251 560 263 c 128,-1,2
 570 275 570 275 579 306 c 1,3,-1
 628 306 l 1,4,-1
 611 187 l 1,5,-1
 536 187 l 1,6,-1
 536 148 l 2,7,8
 536 106 536 106 547.5 90 c 128,-1,9
 559 74 559 74 585 74 c 2,10,-1
 612 74 l 1,11,-1
 612 22 l 1,12,-1
 354 22 l 1,13,-1
 354 74 l 1,14,-1
 383 74 l 2,15,16
 408 74 408 74 419.5 90 c 128,-1,17
 431 106 431 106 431 147 c 2,18,-1
 431 187 l 1,19,-1
 192 187 l 1,20,-1
 192 250 l 1,21,-1
 449 625 l 1,22,-1
 536 625 l 1,23,-1
 536 249 l 1,0,1
431 507 m 1,24,-1
 257 249 l 1,25,-1
 431 249 l 1,26,-1
 431 507 l 1,24,-1
EndSplineSet
EndChar

StartChar: five
Encoding: 53 53 21
Width: 875
GlyphClass: 2
Flags: W
LayerCount: 2
Fore
SplineSet
612 524 m 1,0,-1
 349 524 l 1,1,-1
 329 433 l 1,2,3
 373 450 373 450 416 450 c 0,4,5
 506 450 506 450 568 389 c 128,-1,6
 630 328 630 328 630 239 c 0,7,8
 630 140 630 140 556 76 c 128,-1,9
 482 12 482 12 370 12 c 0,10,11
 306 12 306 12 240 34 c 1,12,-1
 259 82 l 1,13,14
 316 67 316 67 350 67 c 0,15,16
 422 67 422 67 473.5 114.5 c 128,-1,17
 525 162 525 162 525 227 c 0,18,19
 525 286 525 286 487 323.5 c 128,-1,20
 449 361 449 361 390 361 c 0,21,22
 334 361 334 361 285 320 c 1,23,-1
 250 327 l 1,24,-1
 317 615 l 1,25,-1
 541 615 l 2,26,27
 576 615 576 615 582 621 c 0,28,29
 584 622 584 622 586 625 c 2,30,-1
 634 625 l 1,31,-1
 612 524 l 1,0,-1
EndSplineSet
EndChar

StartChar: six
Encoding: 54 54 22
Width: 875
GlyphClass: 2
Flags: W
LayerCount: 2
Fore
SplineSet
449 9 m 0,0,1
 366 9 366 9 306 74 c 0,2,3
 236 150 236 150 236 272 c 0,4,5
 236 388 236 388 303 481 c 0,6,7
 405 622 405 622 585 622 c 1,8,-1
 585 572 l 1,9,10
 537 569 537 569 509 559 c 0,11,12
 433 537 433 537 389 471 c 0,13,14
 364 433 364 433 353 381 c 1,15,16
 411 427 411 427 471 427 c 0,17,18
 544 427 544 427 591.5 371 c 128,-1,19
 639 315 639 315 639 231 c 0,20,21
 639 140 639 140 583.5 74.5 c 128,-1,22
 528 9 528 9 449 9 c 0,0,1
445 362 m 0,23,24
 384 362 384 362 342 292 c 1,25,26
 341 276 341 276 341 259 c 0,27,28
 341 173 341 173 372 118.5 c 128,-1,29
 403 64 403 64 446 64 c 0,30,31
 485 64 485 64 509.5 101.5 c 128,-1,32
 534 139 534 139 534 206 c 0,33,34
 534 280 534 280 509 321 c 128,-1,35
 484 362 484 362 445 362 c 0,23,24
EndSplineSet
EndChar

StartChar: seven
Encoding: 55 55 23
Width: 875
GlyphClass: 2
Flags: W
LayerCount: 2
Fore
SplineSet
558 525 m 1,0,-1
 378 525 l 2,1,2
 339 525 339 525 319 508.5 c 128,-1,3
 299 492 299 492 287 447 c 1,4,-1
 233 447 l 1,5,-1
 274 626 l 1,6,-1
 306 626 l 1,7,8
 322 616 322 616 369 616 c 2,9,-1
 639 616 l 1,10,-1
 639 558 l 1,11,12
 576 459 576 459 526 303 c 0,13,14
 474 145 474 145 473 22 c 1,15,-1
 368 22 l 1,16,-1
 368 41 l 2,17,18
 368 125 368 125 420 248 c 0,19,20
 492 420 492 420 558 525 c 1,0,-1
EndSplineSet
EndChar

StartChar: eight
Encoding: 56 56 24
Width: 875
GlyphClass: 2
Flags: W
LayerCount: 2
Fore
SplineSet
350 325 m 1,0,1
 297 362 297 362 273 392.5 c 128,-1,2
 249 423 249 423 249 465 c 0,3,4
 249 532 249 532 305 579 c 128,-1,5
 361 626 361 626 439 626 c 0,6,7
 515 626 515 626 569.5 583.5 c 128,-1,8
 624 541 624 541 624 478 c 0,9,10
 624 398 624 398 528 352 c 1,11,12
 639 290 639 290 639 185 c 0,13,14
 639 108 639 108 582 60 c 128,-1,15
 525 12 525 12 437 12 c 0,16,17
 353 12 353 12 294.5 58 c 128,-1,18
 236 104 236 104 236 174 c 0,19,20
 236 218 236 218 263 255 c 128,-1,21
 290 292 290 292 331 315 c 0,22,23
 336 318 336 318 350 325 c 1,0,1
434 569 m 0,24,25
 393 569 393 569 366.5 546.5 c 128,-1,26
 340 524 340 524 340 493 c 0,27,28
 340 439 340 439 408 408 c 0,29,30
 418 403 418 403 439 393.5 c 128,-1,31
 460 384 460 384 471 379 c 1,32,33
 540 412 540 412 540 473 c 0,34,35
 540 514 540 514 510 541.5 c 128,-1,36
 480 569 480 569 434 569 c 0,24,25
465 269 m 2,37,-1
 416 293 l 1,38,-1
 404 298 l 1,39,40
 366 279 366 279 345 248 c 128,-1,41
 324 217 324 217 324 180 c 0,42,43
 324 129 324 129 357 96.5 c 128,-1,44
 390 64 390 64 444 64 c 0,45,46
 494 64 494 64 525 90.5 c 128,-1,47
 556 117 556 117 556 158 c 0,48,49
 556 224 556 224 465 269 c 2,37,-1
EndSplineSet
EndChar

StartChar: nine
Encoding: 57 57 25
Width: 875
GlyphClass: 2
Flags: W
LayerCount: 2
Fore
SplineSet
290 12 m 1,0,-1
 290 63 l 1,1,2
 338 64 338 64 366 73 c 0,3,4
 491 112 491 112 522 252 c 1,5,6
 466 206 466 206 404 206 c 0,7,8
 331 206 331 206 283.5 262.5 c 128,-1,9
 236 319 236 319 236 402 c 0,10,11
 236 493 236 493 291.5 559.5 c 128,-1,12
 347 626 347 626 425 626 c 0,13,14
 518 626 518 626 578.5 549.5 c 128,-1,15
 639 473 639 473 639 360 c 0,16,17
 639 214 639 214 540 113.5 c 128,-1,18
 441 13 441 13 290 12 c 1,0,-1
428 569 m 0,19,20
 389 569 389 569 365 531.5 c 128,-1,21
 341 494 341 494 341 427 c 0,22,23
 341 354 341 354 366 312.5 c 128,-1,24
 391 271 391 271 430 271 c 0,25,26
 491 271 491 271 533 341 c 1,27,28
 534 358 534 358 534 374 c 0,29,30
 534 460 534 460 503 514.5 c 128,-1,31
 472 569 472 569 428 569 c 0,19,20
EndSplineSet
EndChar

StartChar: less
Encoding: 60 60 26
Width: 1000
GlyphClass: 2
Flags: WO
LayerCount: 2
Fore
SplineSet
956 546 m 1,0,1
 854 266 854 266 945 161 c 1,2,3
 945 161 945 161 510 18 c 1,4,5
 510 18 510 18 68 163 c 1,6,7
 148 259 148 259 50 543 c 1,8,9
 530 594 530 594 956 546 c 1,0,1
EndSplineSet
EndChar

StartChar: equal
Encoding: 61 61 27
Width: 1000
GlyphClass: 2
Flags: W
LayerCount: 2
Fore
SplineSet
45 136 m 1,0,1
 166 323 166 323 45 526 c 1,2,3
 477 573 477 573 965 523 c 1,4,5
 846 324 846 324 967 137 c 1,6,7
 495 86 495 86 45 136 c 1,0,1
EndSplineSet
EndChar

StartChar: greater
Encoding: 62 62 28
Width: 1000
GlyphClass: 2
Flags: W
LayerCount: 2
Fore
SplineSet
52 137 m 1,0,1
 154 417 154 417 63 522 c 1,2,3
 63 522 63 522 498 665 c 1,4,5
 498 665 498 665 940 520 c 1,6,7
 860 424 860 424 958 140 c 1,8,9
 478 89 478 89 52 137 c 1,0,1
EndSplineSet
EndChar

StartChar: question
Encoding: 63 63 29
Width: 1000
GlyphClass: 2
Flags: W
LayerCount: 2
Fore
SplineSet
497 0 m 1,0,-1
 -80 186 l 1,1,2
 -71 445 -71 445 -187 570 c 1,3,-1
 231 700 l 1,4,5
 491 447 491 447 750 700 c 1,6,-1
 1161 563 l 1,7,8
 1055 465 1055 465 1065 188 c 1,9,-1
 497 0 l 1,0,-1
EndSplineSet
EndChar

StartChar: at
Encoding: 64 64 30
Width: 875
GlyphClass: 2
Flags: W
LayerCount: 2
Fore
SplineSet
373 127 m 1,0,1
 386 141 386 141 405 159 c 0,2,3
 428 182 428 182 463 216 c 0,4,5
 484 236 484 236 505 258.5 c 128,-1,6
 526 281 526 281 548 304 c 0,7,8
 570 326 570 326 581 341 c 0,9,10
 604 375 604 375 604 410 c 256,11,12
 604 445 604 445 583 469 c 128,-1,13
 562 493 562 493 530 493 c 0,14,15
 495 493 495 493 466.5 469.5 c 128,-1,16
 438 446 438 446 412 386 c 1,17,-1
 368 403 l 1,18,19
 400 484 400 484 444 522.5 c 128,-1,20
 488 561 488 561 548 561 c 0,21,22
 607 561 607 561 651 522 c 0,23,24
 694 483 694 483 694 424 c 0,25,26
 694 350 694 350 607 281 c 2,27,-1
 550 236 l 2,28,29
 529 219 529 219 509.5 201.5 c 128,-1,30
 490 184 490 184 465 158 c 1,31,-1
 596 158 l 2,32,33
 628 158 628 158 641 168 c 0,34,35
 649 173 649 173 656 184 c 128,-1,36
 663 195 663 195 672 216 c 1,37,-1
 718 216 l 1,38,-1
 678 83 l 1,39,-1
 157 83 l 1,40,-1
 157 127 l 1,41,-1
 179 127 l 2,42,43
 202 127 202 127 214.5 140 c 128,-1,44
 227 153 227 153 227 184 c 2,45,-1
 227 428 l 2,46,47
 227 461 227 461 216.5 473.5 c 128,-1,48
 206 486 206 486 189 486 c 2,49,-1
 158 486 l 1,50,-1
 158 529 l 1,51,-1
 176 529 l 2,52,53
 229 529 229 529 281 564 c 1,54,-1
 315 564 l 1,55,-1
 315 184 l 2,56,57
 315 153 315 153 327 140 c 128,-1,58
 339 127 339 127 362 127 c 2,59,-1
 373 127 l 1,0,1
EndSplineSet
EndChar

StartChar: A
Encoding: 65 65 31
Width: 1201
GlyphClass: 2
Flags: W
LayerCount: 2
Fore
SplineSet
728 840 m 0,0,1
 945 840 945 840 1068 596 c 1,2,3
 1100 515 1100 515 1100 432 c 0,4,5
 1100 195 1100 195 872 56 c 1,6,7
 780 8 780 8 684 8 c 2,8,-1
 676 8 l 2,9,10
 636 8 636 8 596 16 c 1,11,-1
 596 28 l 1,12,-1
 636 24 l 1,13,-1
 652 24 l 2,14,15
 892 24 892 24 1008 264 c 1,16,17
 1032 330 1032 330 1032 388 c 0,18,19
 1032 578 1032 578 876 656 c 0,20,21
 857 668 857 668 824 668 c 2,22,-1
 788 668 l 2,23,24
 718 668 718 668 688 512 c 0,25,26
 685 511 685 511 660 464 c 1,27,-1
 660 460 l 1,28,-1
 664 460 l 1,29,30
 690 468 690 468 700 468 c 0,31,32
 713 468 713 468 780 440 c 0,33,34
 795 436 795 436 816 436 c 0,35,36
 860 444 860 444 860 476 c 1,37,-1
 868 476 l 1,38,39
 868 468 868 468 872 468 c 1,40,41
 857 376 857 376 812 376 c 2,42,-1
 796 376 l 1,43,44
 686 424 686 424 664 424 c 2,45,-1
 640 424 l 2,46,47
 580 424 580 424 560 336 c 0,48,49
 560 320 560 320 556 320 c 2,50,-1
 560 312 l 1,51,-1
 556 304 l 1,52,-1
 560 296 l 2,53,54
 560 292 560 292 556 292 c 1,55,56
 568 233 568 233 608 96 c 1,57,58
 591 0 591 0 484 0 c 2,59,-1
 468 0 l 2,60,61
 269 0 269 0 140 224 c 1,62,63
 100 321 100 321 100 404 c 0,64,65
 100 660 100 660 352 796 c 1,66,67
 438 832 438 832 516 832 c 2,68,-1
 524 832 l 2,69,70
 564 832 564 832 604 824 c 1,71,-1
 604 812 l 1,72,-1
 556 816 l 1,73,-1
 548 816 l 2,74,75
 308 816 308 816 192 576 c 1,76,77
 168 510 168 510 168 452 c 2,78,-1
 168 444 l 2,79,80
 168 250 168 250 344 176 c 1,81,82
 380 171 380 171 388 168 c 0,83,84
 460 168 460 168 488 240 c 1,85,86
 515 345 515 345 540 376 c 1,87,-1
 540 380 l 1,88,89
 514 372 514 372 504 372 c 2,90,-1
 500 372 l 1,91,-1
 400 404 l 1,92,-1
 392 404 l 2,93,94
 340 404 340 404 340 356 c 1,95,-1
 332 356 l 1,96,-1
 332 388 l 1,97,98
 347 464 347 464 388 464 c 2,99,-1
 396 464 l 2,100,101
 409 464 409 464 520 416 c 1,102,-1
 560 416 l 2,103,104
 613 416 613 416 636 484 c 1,105,106
 644 527 644 527 644 540 c 0,107,108
 633 611 633 611 592 744 c 1,109,110
 592 822 592 822 700 836 c 0,111,112
 705 840 705 840 728 840 c 0,0,1
EndSplineSet
EndChar

StartChar: B
Encoding: 66 66 32
Width: 875
GlyphClass: 2
Flags: W
LayerCount: 2
Fore
SplineSet
762 329 m 0,0,1
 762 287 762 287 743 263 c 128,-1,2
 724 239 724 239 697 232.5 c 128,-1,3
 670 226 670 226 643 223 c 128,-1,4
 616 220 616 220 597 211.5 c 128,-1,5
 578 203 578 203 578 183 c 2,6,-1
 578 102 l 2,7,8
 578 101 578 101 581 71 c 128,-1,9
 584 41 584 41 584 39 c 0,10,11
 584 23 584 23 577 -10 c 0,12,13
 573 -11 573 -11 559.5 -13.5 c 128,-1,14
 546 -16 546 -16 533 -19 c 1,15,16
 525 11 525 11 525 22 c 0,17,18
 525 24 525 24 527.5 37 c 128,-1,19
 530 50 530 50 530 52 c 0,20,21
 530 60 530 60 518 91 c 1,22,-1
 503 91 l 2,23,24
 501 88 501 88 500.5 84.5 c 128,-1,25
 500 81 500 81 501 78 c 128,-1,26
 502 75 502 75 503 67 c 128,-1,27
 504 59 504 59 503 49 c 1,28,29
 488 39 488 39 456 17 c 1,30,-1
 454 18 l 2,31,32
 452 19 452 19 451 19 c 2,33,-1
 451 90 l 2,34,35
 449 94 449 94 445 94.5 c 128,-1,36
 441 95 441 95 435.5 94.5 c 128,-1,37
 430 94 430 94 429 94 c 2,38,-1
 417 0 l 1,39,-1
 383 0 l 1,40,41
 380 9 380 9 372 44 c 128,-1,42
 364 79 364 79 358 98 c 1,43,-1
 350 98 l 1,44,45
 338 67 338 67 338 60 c 0,46,47
 338 58 338 58 340.5 44.5 c 128,-1,48
 343 31 343 31 343 29 c 0,49,50
 343 28 343 28 342 21 c 128,-1,51
 341 14 341 14 339.5 5 c 128,-1,52
 338 -4 338 -4 338 -10 c 0,53,54
 336 -12 336 -12 333 -12 c 0,55,56
 302 -12 302 -12 292.5 2 c 128,-1,57
 283 16 283 16 285 45 c 2,58,-1
 293 165 l 2,59,60
 293 169 293 169 296.5 174.5 c 128,-1,61
 300 180 300 180 296.5 187 c 128,-1,62
 293 194 293 194 280 212 c 0,63,64
 279 214 279 214 273.5 215.5 c 128,-1,65
 268 217 268 217 260 217.5 c 128,-1,66
 252 218 252 218 249 219 c 0,67,68
 209 228 209 228 182 233 c 0,69,70
 158 238 158 238 143 249.5 c 128,-1,71
 128 261 128 261 122 279.5 c 128,-1,72
 116 298 116 298 114.5 311 c 128,-1,73
 113 324 113 324 113 344 c 0,74,75
 113 490 113 490 233 587 c 1,76,77
 234 584 234 584 240 555 c 128,-1,78
 246 526 246 526 250 515 c 0,79,80
 251 513 251 513 256 512 c 128,-1,81
 261 511 261 511 271 509.5 c 128,-1,82
 281 508 281 508 289 506 c 0,83,84
 300 503 300 503 321.5 494.5 c 128,-1,85
 343 486 343 486 350 484 c 1,86,87
 347 487 347 487 317 507 c 128,-1,88
 287 527 287 527 277 539 c 0,89,90
 260 560 260 560 260 606 c 0,91,92
 260 616 260 616 296 631 c 128,-1,93
 332 646 332 646 349 648 c 0,94,95
 396 655 396 655 432 655 c 0,96,97
 557 655 557 655 634 591 c 1,98,99
 609 562 609 562 548 529 c 1,100,101
 562 528 562 528 588 537.5 c 128,-1,102
 614 547 614 547 636 558 c 2,103,-1
 657 568 l 2,104,105
 664 568 664 568 686.5 538.5 c 128,-1,106
 709 509 709 509 718 493 c 0,107,108
 749 437 749 437 761 370 c 0,109,110
 761 360 761 360 761 352 c 128,-1,111
 761 344 761 344 761.5 340 c 128,-1,112
 762 336 762 336 762 334 c 128,-1,113
 762 332 762 332 762 331 c 128,-1,114
 762 330 762 330 762 329 c 0,0,1
714 327 m 0,115,116
 714 364 714 364 685 397 c 128,-1,117
 656 430 656 430 615 430 c 128,-1,118
 574 430 574 430 537 391.5 c 128,-1,119
 500 353 500 353 500 311 c 0,120,121
 500 296 500 296 509.5 286 c 128,-1,122
 519 276 519 276 534 276 c 2,123,-1
 649 277 l 2,124,125
 714 277 714 277 714 327 c 0,115,116
488 187 m 0,126,127
 488 217 488 217 487 219 c 0,128,129
 481 228 481 228 474 245 c 0,130,131
 472 250 472 250 468.5 261.5 c 128,-1,132
 465 273 465 273 461 283 c 128,-1,133
 457 293 457 293 452 301 c 1,134,-1
 441 184 l 2,135,136
 441 183 441 183 441.5 180 c 128,-1,137
 442 177 442 177 442 175 c 128,-1,138
 442 173 442 173 440 171.5 c 128,-1,139
 438 170 438 170 435 170 c 0,140,141
 431 170 431 170 429 172 c 0,142,143
 428 185 428 185 426.5 207 c 128,-1,144
 425 229 425 229 423.5 245 c 128,-1,145
 422 261 422 261 422 264 c 2,146,-1
 422 299 l 2,147,148
 419 302 419 302 417 302 c 0,149,150
 402 286 402 286 392.5 252.5 c 128,-1,151
 383 219 383 219 383 189 c 0,152,153
 383 145 383 145 391 136 c 1,154,155
 399 138 399 138 403 140 c 128,-1,156
 407 142 407 142 408.5 143 c 128,-1,157
 410 144 410 144 415 144.5 c 128,-1,158
 420 145 420 145 432 145 c 128,-1,159
 444 145 444 145 455 142 c 128,-1,160
 466 139 466 139 471.5 136 c 128,-1,161
 477 133 477 133 478 133 c 0,162,163
 488 133 488 133 488 187 c 0,126,127
379 311 m 0,164,165
 379 352 379 352 341.5 391.5 c 128,-1,166
 304 431 304 431 261 431 c 0,167,168
 221 431 221 431 193 397.5 c 128,-1,169
 165 364 165 364 165 328 c 0,170,171
 165 320 165 320 167 313.5 c 128,-1,172
 169 307 169 307 171 302.5 c 128,-1,173
 173 298 173 298 178.5 294 c 128,-1,174
 184 290 184 290 187.5 287.5 c 128,-1,175
 191 285 191 285 198.5 283 c 128,-1,176
 206 281 206 281 209.5 280 c 128,-1,177
 213 279 213 279 222 278.5 c 128,-1,178
 231 278 231 278 234 277.5 c 128,-1,179
 237 277 237 277 246.5 277 c 128,-1,180
 256 277 256 277 257 277 c 2,181,-1
 312 276 l 2,182,183
 313 276 313 276 316 276 c 0,184,185
 379 275 379 275 379 311 c 0,164,165
EndSplineSet
EndChar

StartChar: C
Encoding: 67 67 33
Width: 875
GlyphClass: 2
Flags: W
LayerCount: 2
Fore
SplineSet
439 632 m 1,0,1
 480 544 480 544 571.5 453 c 128,-1,2
 663 362 663 362 751 320 c 1,3,4
 663 279 663 279 571.5 187.5 c 128,-1,5
 480 96 480 96 439 8 c 1,6,7
 398 96 398 96 306.5 187.5 c 128,-1,8
 215 279 215 279 127 320 c 1,9,10
 215 362 215 362 306.5 453 c 128,-1,11
 398 544 398 544 439 632 c 1,0,1
439 515 m 1,12,13
 414 460 414 460 356.5 402.5 c 128,-1,14
 299 345 299 345 244 320 c 1,15,16
 299 295 299 295 356.5 238 c 128,-1,17
 414 181 414 181 439 125 c 1,18,19
 464 181 464 181 521.5 238 c 128,-1,20
 579 295 579 295 634 320 c 1,21,22
 579 345 579 345 521.5 402.5 c 128,-1,23
 464 460 464 460 439 515 c 1,12,13
EndSplineSet
EndChar

StartChar: E
Encoding: 69 69 34
Width: 875
GlyphClass: 2
Flags: W
LayerCount: 2
Fore
SplineSet
435 -47 m 0,0,1
 433 -45 433 -45 430.5 -39 c 128,-1,2
 428 -33 428 -33 427 -31 c 0,3,4
 425 -27 425 -27 420.5 -21.5 c 128,-1,5
 416 -16 416 -16 414 -14 c 0,6,7
 412 -10 412 -10 406 -2.5 c 128,-1,8
 400 5 400 5 398 8 c 0,9,10
 387 23 387 23 367 43 c 0,11,12
 322 90 322 90 280 118 c 0,13,14
 199 174 199 174 122 203 c 1,15,16
 122 203 122 203 97 215 c 1,17,18
 99 219 99 219 117 244.5 c 128,-1,19
 135 270 135 270 138 276 c 0,20,21
 148 292 148 292 167 335 c 0,22,23
 184 376 184 376 195 413 c 0,24,25
 211 465 211 465 220 516 c 0,26,27
 221 520 221 520 224.5 544 c 128,-1,28
 228 568 228 568 232.5 600 c 128,-1,29
 237 632 237 632 239 650 c 1,30,31
 251 646 251 646 259.5 643.5 c 128,-1,32
 268 641 268 641 272 640 c 128,-1,33
 276 639 276 639 278.5 638 c 128,-1,34
 281 637 281 637 282 637 c 128,-1,35
 283 637 283 637 283.5 636.5 c 128,-1,36
 284 636 284 636 285 636 c 128,-1,37
 286 636 286 636 289 635 c 0,38,39
 319 627 319 627 398 621 c 0,40,41
 420 619 420 619 460 620 c 0,42,43
 514 621 514 621 552 626 c 0,44,45
 576 630 576 630 597.5 635.5 c 128,-1,46
 619 641 619 641 642 650 c 1,47,48
 642 649 642 649 649 611 c 128,-1,49
 656 573 656 573 664 529.5 c 128,-1,50
 672 486 672 486 685.5 433.5 c 128,-1,51
 699 381 699 381 712 350 c 0,52,53
 718 337 718 337 728.5 316.5 c 128,-1,54
 739 296 739 296 750.5 277 c 128,-1,55
 762 258 762 258 772.5 241 c 128,-1,56
 783 224 783 224 788 218 c 1,57,58
 769 210 769 210 720 186.5 c 128,-1,59
 671 163 671 163 642 146 c 0,60,61
 556 95 556 95 498 30 c 0,62,63
 482 13 482 13 447 -41 c 0,64,65
 443 -48 443 -48 440.5 -49.5 c 128,-1,66
 438 -51 438 -51 435 -47 c 0,0,1
451 31 m 0,67,68
 468 119 468 119 543 244 c 0,69,70
 575 296 575 296 611 345 c 0,71,72
 627 367 627 367 627 370 c 128,-1,73
 627 373 627 373 625.5 373.5 c 128,-1,74
 624 374 624 374 608 371 c 0,75,76
 526 356 526 356 462 363 c 0,77,78
 431 366 431 366 428 368 c 0,79,80
 427 369 427 369 429.5 384 c 128,-1,81
 432 399 432 399 435 410 c 0,82,83
 445 453 445 453 469 496 c 128,-1,84
 493 539 493 539 525 573 c 0,85,86
 537 585 537 585 536.5 586 c 128,-1,87
 536 587 536 587 528 584 c 0,88,89
 487 571 487 571 444.5 569.5 c 128,-1,90
 402 568 402 568 369 579 c 0,91,92
 359 583 359 583 358.5 582.5 c 128,-1,93
 358 582 358 582 359 570 c 0,94,95
 370 468 370 468 269 320 c 0,96,97
 250 292 250 292 228 266 c 0,98,99
 221 257 221 257 222.5 256.5 c 128,-1,100
 224 256 224 256 241 261 c 0,101,102
 278 270 278 270 321 275 c 0,103,104
 338 278 338 278 372.5 277.5 c 128,-1,105
 407 277 407 277 422 275 c 0,106,107
 451 270 451 270 454 268 c 0,108,109
 454 267 454 267 453 263 c 0,110,111
 444 238 444 238 440 201 c 0,112,113
 431 134 431 134 440 54 c 0,114,115
 444 15 444 15 446 11 c 0,116,117
 447 10 447 10 447 12 c 0,118,119
 448 15 448 15 451 31 c 0,67,68
EndSplineSet
EndChar

StartChar: G
Encoding: 71 71 35
Width: 875
GlyphClass: 2
Flags: W
LayerCount: 2
Fore
SplineSet
793 277 m 0,0,1
 793 257 793 257 777.5 241 c 128,-1,2
 762 225 762 225 742 225 c 128,-1,3
 722 225 722 225 709 236 c 0,4,5
 700 245 700 245 695 255 c 1,6,7
 665 257 665 257 648 257 c 0,8,9
 627 257 627 257 583 242.5 c 128,-1,10
 539 228 539 228 535 223 c 0,11,12
 524 211 524 211 517.5 172 c 128,-1,13
 511 133 511 133 511 114 c 0,14,15
 511 88 511 88 519 75 c 128,-1,16
 527 62 527 62 554 54 c 0,17,18
 557 53 557 53 565.5 50.5 c 128,-1,19
 574 48 574 48 580 46 c 128,-1,20
 586 44 586 44 587 44 c 128,-1,21
 588 44 588 44 599 44.5 c 128,-1,22
 610 45 610 45 612 45 c 0,23,24
 618 45 618 45 628 43.5 c 128,-1,25
 638 42 638 42 648 37 c 128,-1,26
 658 32 658 32 656 25 c 0,27,28
 652 24 652 24 635 24.5 c 128,-1,29
 618 25 618 25 607 19 c 1,30,-1
 635 5 l 1,31,32
 635 -7 635 -7 601 -7 c 0,33,34
 590 -7 590 -7 574 -3 c 128,-1,35
 558 1 558 1 556 1 c 2,36,-1
 543 1 l 1,37,38
 541 -4 541 -4 539.5 -14 c 128,-1,39
 538 -24 538 -24 537 -29 c 1,40,41
 518 -28 518 -28 497 -9 c 128,-1,42
 476 10 476 10 468 10 c 0,43,44
 461 10 461 10 450.5 -10 c 128,-1,45
 440 -30 440 -30 440 -35 c 1,46,47
 433 -32 433 -32 427 -24 c 128,-1,48
 421 -16 421 -16 418.5 -9.5 c 128,-1,49
 416 -3 416 -3 412.5 6.5 c 128,-1,50
 409 16 409 16 409 17 c 1,51,52
 402 16 402 16 395 8.5 c 128,-1,53
 388 1 388 1 381 -11 c 128,-1,54
 374 -23 374 -23 372 -25 c 2,55,-1
 367 -25 l 1,56,57
 362 -19 362 -19 359 -8.5 c 128,-1,58
 356 2 356 2 355 9.5 c 128,-1,59
 354 17 354 17 352 17 c 0,60,61
 318 27 318 27 294 27 c 0,62,63
 282 27 282 27 254 21 c 1,64,-1
 226 23 l 1,65,66
 234 31 234 31 264.5 48.5 c 128,-1,67
 295 66 295 66 313 66 c 0,68,69
 314 66 314 66 321 65 c 128,-1,70
 328 64 328 64 329 64 c 0,71,72
 336 64 336 64 351.5 71 c 128,-1,73
 367 78 367 78 369 83 c 0,74,75
 372 92 372 92 372 116 c 0,76,77
 372 165 372 165 347.5 195 c 128,-1,78
 323 225 323 225 256 237 c 1,79,80
 239 180 239 180 166 180 c 0,81,82
 140 180 140 180 117 210 c 128,-1,83
 94 240 94 240 94 262 c 0,84,85
 94 299 94 299 125 323 c 1,86,87
 100 348 100 348 100 376 c 0,88,89
 100 399 100 399 114.5 419 c 128,-1,90
 129 439 129 439 156 442 c 1,91,92
 154 473 154 473 177 486 c 1,93,94
 166 497 166 497 166 525 c 0,95,96
 166 557 166 557 188 579.5 c 128,-1,97
 210 602 210 602 243 602 c 0,98,99
 279 602 279 602 302 577 c 1,100,101
 331 676 331 676 427 676 c 0,102,103
 445 676 445 676 462 670 c 128,-1,104
 479 664 479 664 490.5 656 c 128,-1,105
 502 648 502 648 510.5 640 c 128,-1,106
 519 632 519 632 523.5 626 c 128,-1,107
 528 620 528 620 529 620 c 2,108,-1
 534 622 l 2,109,110
 539 624 539 624 550 626.5 c 128,-1,111
 561 629 561 629 576 629 c 0,112,113
 613 629 613 629 642 603.5 c 128,-1,114
 671 578 671 578 681 534 c 0,115,116
 681 533 681 533 685 532 c 128,-1,117
 689 531 689 531 694.5 530.5 c 128,-1,118
 700 530 700 530 703 528 c 0,119,120
 725 516 725 516 725 490 c 0,121,122
 725 485 725 485 717 471 c 1,123,124
 781 435 781 435 781 371 c 0,125,126
 781 353 781 353 767 321 c 1,127,128
 793 306 793 306 793 277 c 0,0,1
554 416 m 1,129,130
 546 420 546 420 533 425.5 c 128,-1,131
 520 431 520 431 509 436 c 1,132,-1
 509 350 l 1,133,134
 555 377 555 377 554 416 c 1,129,130
609 298 m 1,135,136
 604 302 604 302 587 325 c 1,137,138
 574 315 574 315 559.5 306 c 128,-1,139
 545 297 545 297 534.5 288.5 c 128,-1,140
 524 280 524 280 511 264 c 1,141,142
 554 287 554 287 609 298 c 1,135,136
424 388 m 2,143,-1
 424 432 l 1,144,145
 408 436 408 436 395 436 c 1,146,-1
 395 421 l 2,147,148
 395 418 395 418 401 411 c 128,-1,149
 407 404 407 404 415 396.5 c 128,-1,150
 423 389 423 389 424 388 c 2,143,-1
363 357 m 1,151,152
 346 376 346 376 337 392 c 0,153,154
 335 392 335 392 330 390.5 c 128,-1,155
 325 389 325 389 322 388 c 128,-1,156
 319 387 319 387 314.5 385.5 c 128,-1,157
 310 384 310 384 307 382.5 c 128,-1,158
 304 381 304 381 301 378.5 c 128,-1,159
 298 376 298 376 296.5 373 c 128,-1,160
 295 370 295 370 295 367 c 1,161,162
 305 368 305 368 329.5 362.5 c 128,-1,163
 354 357 354 357 363 357 c 1,151,152
381 233 m 1,164,-1
 381 246 l 2,165,166
 381 268 381 268 359 287.5 c 128,-1,167
 337 307 337 307 313 307 c 0,168,169
 285 307 285 307 261 294 c 1,170,171
 314 297 314 297 381 233 c 1,164,-1
EndSplineSet
EndChar

StartChar: H
Encoding: 72 72 36
Width: 874
GlyphClass: 2
Flags: W
LayerCount: 2
Fore
SplineSet
432 706 m 2,0,-1
 479 706 l 1,1,-1
 499 704 l 1,2,-1
 499 700 l 1,3,4
 366 516 366 516 366 370 c 2,5,-1
 366 366 l 1,6,-1
 368 356 l 1,7,-1
 370 356 l 1,8,9
 462 581 462 581 633 581 c 0,10,11
 693 581 693 581 754 548 c 1,12,13
 825 461 825 461 825 328 c 2,14,-1
 825 285 l 1,15,-1
 823 261 l 1,16,-1
 821 261 l 1,17,18
 627 395 627 395 511 395 c 2,19,-1
 501 395 l 1,20,-1
 499 397 l 1,21,-1
 477 395 l 1,22,-1
 477 393 l 1,23,24
 702 296 702 296 702 131 c 0,25,26
 702 67 702 67 667 6 c 1,27,28
 576 -64 576 -64 434 -64 c 1,29,-1
 418 -62 l 1,30,-1
 396 -62 l 2,31,32
 382 -62 382 -62 382 -58 c 0,33,34
 515 132 515 132 515 261 c 2,35,-1
 515 287 l 1,36,-1
 513 287 l 1,37,38
 419 61 419 61 250 61 c 0,39,40
 180 61 180 61 123 97 c 1,41,42
 56 187 56 187 56 324 c 2,43,-1
 56 338 l 2,44,45
 56 370 56 370 60 380 c 1,46,47
 255 245 255 245 384 245 c 1,48,-1
 410 247 l 1,49,-1
 410 249 l 1,50,51
 181 344 181 344 181 506 c 2,52,-1
 181 520 l 2,53,54
 181 580 181 580 214 637 c 1,55,56
 303 706 303 706 432 706 c 2,0,-1
368 346 m 1,57,58
 380 286 380 286 410 255 c 1,59,-1
 418 249 l 1,60,61
 459 249 459 249 513 295 c 1,62,-1
 513 297 l 2,63,64
 513 333 513 333 473 386 c 1,65,-1
 465 393 l 1,66,67
 423 393 423 393 368 346 c 1,57,58
436 346 m 2,68,-1
 445 346 l 2,69,70
 461 346 461 346 465 324 c 1,71,-1
 465 322 l 1,72,73
 460 297 460 297 441 297 c 1,74,75
 416 303 416 303 416 322 c 2,76,-1
 416 324 l 1,77,78
 420 346 420 346 436 346 c 2,68,-1
EndSplineSet
EndChar

StartChar: K
Encoding: 75 75 37
Width: 875
GlyphClass: 2
Flags: W
LayerCount: 2
Fore
SplineSet
869 321 m 0,0,1
 869 204 869 204 811.5 105 c 128,-1,2
 754 6 754 6 655 -51.5 c 128,-1,3
 556 -109 556 -109 439 -109 c 0,4,5
 261 -109 261 -109 135.5 17 c 128,-1,6
 10 143 10 143 10 321 c 128,-1,7
 10 499 10 499 135.5 624.5 c 128,-1,8
 261 750 261 750 439 750 c 128,-1,9
 617 750 617 750 743 624.5 c 128,-1,10
 869 499 869 499 869 321 c 0,0,1
804 370 m 0,11,12
 804 397 804 397 793 408 c 0,13,14
 750 455 750 455 661.5 542 c 128,-1,15
 573 629 573 629 550 653 c 0,16,17
 521 683 521 683 491 683 c 0,18,19
 463 683 463 683 453 672 c 0,20,21
 398 621 398 621 339 562.5 c 128,-1,22
 280 504 280 504 212 434.5 c 128,-1,23
 144 365 144 365 122 343 c 0,24,25
 90 312 90 312 83 300.5 c 128,-1,26
 76 289 76 289 76 268 c 0,27,28
 76 240 76 240 86 230 c 0,29,30
 125 186 125 186 215.5 98 c 128,-1,31
 306 10 306 10 330 -15 c 0,32,33
 359 -45 359 -45 389 -45 c 0,34,35
 416 -45 416 -45 427 -35 c 0,36,37
 490 24 490 24 607.5 144 c 128,-1,38
 725 264 725 264 758 295 c 0,39,40
 804 340 804 340 804 370 c 0,11,12
710 256 m 1,41,-1
 426 256 l 1,42,-1
 530 330 l 1,43,44
 472 376 472 376 396 376 c 0,45,46
 357 376 357 376 343.5 361.5 c 128,-1,47
 330 347 330 347 330 309 c 0,48,49
 330 262 330 262 359 201 c 128,-1,50
 388 140 388 140 438 85 c 1,51,-1
 356 2 l 1,52,53
 213 177 213 177 213 313 c 0,54,55
 213 398 213 398 264.5 445 c 128,-1,56
 316 492 316 492 394 492 c 0,57,58
 493 492 493 492 612 416 c 1,59,-1
 673 520 l 1,60,-1
 710 256 l 1,41,-1
EndSplineSet
EndChar

StartChar: L
Encoding: 76 76 38
Width: 0
GlyphClass: 2
Flags: W
LayerCount: 2
Fore
SplineSet
869 321 m 0,0,1
 869 204 869 204 811.5 105 c 128,-1,2
 754 6 754 6 655 -51.5 c 128,-1,3
 556 -109 556 -109 439 -109 c 0,4,5
 261 -109 261 -109 135.5 17 c 128,-1,6
 10 143 10 143 10 321 c 128,-1,7
 10 499 10 499 135.5 624.5 c 128,-1,8
 261 750 261 750 439 750 c 128,-1,9
 617 750 617 750 743 624.5 c 128,-1,10
 869 499 869 499 869 321 c 0,0,1
838 321 m 0,11,12
 838 485 838 485 721 602 c 128,-1,13
 604 719 604 719 439 719 c 0,14,15
 275 719 275 719 158 601 c 128,-1,16
 41 483 41 483 41 321 c 0,17,18
 41 156 41 156 158 39 c 128,-1,19
 275 -78 275 -78 439 -78 c 0,20,21
 604 -78 604 -78 721 39 c 128,-1,22
 838 156 838 156 838 321 c 0,11,12
EndSplineSet
EndChar

StartChar: O
Encoding: 79 79 39
Width: 0
GlyphClass: 2
Flags: W
LayerCount: 2
Fore
SplineSet
49 321 m 0,0,1
 49 482 49 482 163.5 596.5 c 128,-1,2
 278 711 278 711 439 711 c 0,3,4
 601 711 601 711 715.5 596.5 c 128,-1,5
 830 482 830 482 830 321 c 0,6,7
 830 159 830 159 715.5 44.5 c 128,-1,8
 601 -70 601 -70 439 -70 c 0,9,10
 278 -70 278 -70 163.5 44.5 c 128,-1,11
 49 159 49 159 49 321 c 0,0,1
EndSplineSet
EndChar

StartChar: P
Encoding: 80 80 40
Width: 983
GlyphClass: 2
Flags: W
LayerCount: 2
Fore
SplineSet
662 139 m 1,0,1
 600 96 600 96 568 87 c 1,2,3
 574 137 574 137 566 162 c 0,4,5
 563 171 563 171 575 333 c 1,6,7
 565 420 565 420 559 433 c 1,8,9
 558 448 558 448 574 500 c 1,10,11
 611 485 611 485 639 462 c 0,12,13
 701 415 701 415 703 400 c 0,14,15
 704 390 704 390 717 372 c 0,16,17
 729 355 729 355 729 344 c 0,18,19
 725 212 725 212 715 187 c 1,20,21
 699 175 699 175 662 139 c 1,0,1
410 120 m 0,22,23
 397 129 397 129 379 154 c 0,24,25
 360 180 360 180 347 189 c 1,26,27
 349 187 349 187 318 293 c 1,28,29
 328 354 328 354 329 366 c 1,30,31
 365 424 365 424 365 425 c 1,32,33
 359 416 359 416 431 489 c 0,34,35
 439 498 439 498 492 500 c 1,36,37
 488 461 488 461 493 440 c 0,38,39
 500 407 500 407 499 404 c 0,40,41
 497 392 497 392 500 363 c 0,42,43
 502 338 502 338 498 323 c 0,44,45
 497 318 497 318 501 156 c 1,46,47
 496 100 496 100 492 82 c 1,48,49
 451 91 451 91 410 120 c 0,22,23
744 457 m 0,50,51
 738 464 738 464 721 484 c 0,52,53
 707 502 707 502 697 512 c 0,54,55
 675 534 675 534 630 549 c 0,56,57
 569 569 569 569 557 575 c 1,58,59
 550 641 550 641 551 647 c 0,60,61
 554 664 554 664 551 670 c 1,62,63
 554 663 554 663 547 757 c 0,64,65
 543 792 543 792 532 799 c 1,66,67
 530 779 530 779 508 709 c 1,68,69
 496 646 496 646 494 640 c 0,70,71
 501 616 501 616 474 584 c 0,72,73
 466 579 466 579 427 566 c 0,74,75
 398 555 398 555 383 542 c 0,76,77
 358 521 358 521 323 500 c 1,78,79
 289 457 289 457 283 437 c 1,80,81
 284 438 284 438 237 319 c 1,82,83
 236 213 236 213 285 151 c 0,84,85
 299 139 299 139 321 114 c 0,86,87
 344 88 344 88 357 77 c 0,88,89
 361 74 361 74 437 35 c 0,90,91
 444 34 444 34 463 30 c 0,92,93
 480 27 480 27 489 24 c 1,94,95
 521 -142 521 -142 540 -188 c 1,96,97
 545 -174 545 -174 549 -146 c 0,98,99
 553 -116 553 -116 556 -103 c 0,100,101
 562 -82 562 -82 556 -39 c 0,102,103
 551 3 551 3 558 23 c 1,104,105
 568 33 568 33 594 35 c 0,106,107
 621 37 621 37 631 45 c 0,108,109
 719 99 719 99 746 134 c 1,110,111
 781 203 781 203 781 200 c 1,112,113
 781 213 781 213 790 253 c 0,114,115
 798 286 798 286 794 306 c 1,116,117
 795 392 795 392 744 457 c 0,50,51
EndSplineSet
EndChar

StartChar: Q
Encoding: 81 81 41
Width: 875
GlyphClass: 2
Flags: W
LayerCount: 2
Fore
SplineSet
698 532 m 1,0,-1
 594 471 l 1,1,2
 670 353 670 353 670 253 c 0,3,4
 670 171 670 171 621.5 121.5 c 128,-1,5
 573 72 573 72 491 72 c 0,6,7
 354 72 354 72 180 215 c 1,8,-1
 263 297 l 1,9,10
 382 189 382 189 487 189 c 0,11,12
 525 189 525 189 539.5 203 c 128,-1,13
 554 217 554 217 554 255 c 0,14,15
 554 331 554 331 508 389 c 1,16,-1
 434 285 l 1,17,-1
 434 569 l 1,18,-1
 698 532 l 1,0,-1
EndSplineSet
EndChar

StartChar: R
Encoding: 82 82 42
Width: 875
GlyphClass: 2
Flags: W
LayerCount: 2
Fore
SplineSet
769 191 m 0,0,1
 744 133 744 133 701 109.5 c 128,-1,2
 658 86 658 86 594 86 c 0,3,4
 571 86 571 86 535.5 78.5 c 128,-1,5
 500 71 500 71 500 55 c 0,6,7
 500 49 500 49 507.5 43 c 128,-1,8
 515 37 515 37 519 37 c 0,9,10
 520 37 520 37 538.5 36.5 c 128,-1,11
 557 36 557 36 582.5 35 c 128,-1,12
 608 34 608 34 627 34 c 1,13,14
 542 -16 542 -16 336 -13 c 0,15,16
 266 -12 266 -12 220 47 c 128,-1,17
 174 106 174 106 174 169 c 0,18,19
 174 241 174 241 223 291.5 c 128,-1,20
 272 342 272 342 343 342 c 0,21,22
 365 342 365 342 390 335 c 128,-1,23
 415 328 415 328 421 328 c 0,24,25
 451 328 451 328 483.5 343 c 128,-1,26
 516 358 516 358 538 373.5 c 128,-1,27
 560 389 560 389 565 389 c 1,28,29
 556 285 556 285 495 248 c 0,30,31
 452 223 452 223 452 199 c 0,32,33
 452 182 452 182 470 175 c 128,-1,34
 488 168 488 168 501 168 c 0,35,36
 528 168 528 168 552 201 c 128,-1,37
 576 234 576 234 574 258 c 0,38,39
 570 286 570 286 578 330 c 0,40,41
 580 340 580 340 592 358 c 128,-1,42
 604 376 604 376 615 381 c 1,43,44
 615 372 615 372 608.5 351.5 c 128,-1,45
 602 331 602 331 602 320 c 0,46,47
 602 313 602 313 606.5 301 c 128,-1,48
 611 289 611 289 614 286 c 0,49,50
 630 292 630 292 643.5 323 c 128,-1,51
 657 354 657 354 660 387 c 1,52,53
 616 389 616 389 575 430.5 c 128,-1,54
 534 472 534 472 543 517 c 1,55,-1
 552 503 l 2,56,57
 561 489 561 489 571 476.5 c 128,-1,58
 581 464 581 464 587 464 c 0,59,60
 603 464 603 464 599 500 c 0,61,62
 593 550 593 550 560 570 c 0,63,64
 548 578 548 578 533 578 c 0,65,66
 516 578 516 578 491.5 563 c 128,-1,67
 467 548 467 548 440 548 c 0,68,69
 425 548 425 548 378 566 c 1,70,71
 379 568 379 568 404 568 c 128,-1,72
 429 568 429 568 452 573.5 c 128,-1,73
 475 579 475 579 475 595 c 0,74,75
 475 605 475 605 458 614 c 128,-1,76
 441 623 441 623 415.5 628.5 c 128,-1,77
 390 634 390 634 372.5 637 c 128,-1,78
 355 640 355 640 342 641 c 0,79,80
 334 642 334 642 318 643 c 128,-1,81
 302 644 302 644 294 645 c 1,82,83
 295 647 295 647 312.5 650.5 c 128,-1,84
 330 654 330 654 359 657.5 c 128,-1,85
 388 661 388 661 414 661 c 0,86,87
 652 661 652 661 716 430 c 1,88,89
 725 438 725 438 726.5 454 c 128,-1,90
 728 470 728 470 723 489 c 128,-1,91
 718 508 718 508 712 524.5 c 128,-1,92
 706 541 706 541 699.5 557 c 128,-1,93
 693 573 693 573 692 576 c 1,94,95
 774 471 774 471 774 379 c 0,96,97
 774 340 774 340 760 308 c 128,-1,98
 746 276 746 276 728 257 c 128,-1,99
 710 238 710 238 682.5 209 c 128,-1,100
 655 180 655 180 639 156 c 1,101,102
 672 165 672 165 688.5 170.5 c 128,-1,103
 705 176 705 176 732 191.5 c 128,-1,104
 759 207 759 207 780 230 c 1,105,106
 780 217 780 217 769 191 c 0,0,1
507 492 m 0,107,108
 507 473 507 473 487.5 462.5 c 128,-1,109
 468 452 468 452 452 452 c 0,110,111
 433 452 433 452 421.5 464.5 c 128,-1,112
 410 477 410 477 396 495 c 128,-1,113
 382 513 382 513 362 522 c 1,114,115
 374 532 374 532 400.5 515.5 c 128,-1,116
 427 499 427 499 432 499 c 0,117,118
 439 499 439 499 449 513 c 128,-1,119
 459 527 459 527 474 527 c 0,120,121
 490 527 490 527 498.5 516.5 c 128,-1,122
 507 506 507 506 507 492 c 0,107,108
333 584 m 0,123,124
 333 571 333 571 324 565.5 c 128,-1,125
 315 560 315 560 302 559 c 128,-1,126
 289 558 289 558 287 557 c 0,127,128
 280 554 280 554 273 546.5 c 128,-1,129
 266 539 266 539 262.5 533 c 128,-1,130
 259 527 259 527 253 515.5 c 128,-1,131
 247 504 247 504 246 502 c 1,132,133
 244 505 244 505 242.5 512.5 c 128,-1,134
 241 520 241 520 239.5 529.5 c 128,-1,135
 238 539 238 539 237 544 c 1,136,137
 229 543 229 543 204.5 525.5 c 128,-1,138
 180 508 180 508 178 507 c 1,139,140
 183 543 183 543 219 582 c 128,-1,141
 255 621 255 621 288 621 c 0,142,143
 307 621 307 621 320 611 c 128,-1,144
 333 601 333 601 333 584 c 0,123,124
EndSplineSet
EndChar

StartChar: S
Encoding: 83 83 43
Width: 874
GlyphClass: 2
Flags: W
LayerCount: 2
Fore
SplineSet
438 700 m 1,0,1
 476 655 476 655 513 596 c 1,2,-1
 535 624 l 1,3,-1
 554 624 l 2,4,5
 568 624 568 624 633 656 c 1,6,-1
 646 574 l 1,7,-1
 658 555 l 1,8,-1
 658 552 l 1,9,-1
 643 523 l 1,10,11
 772 513 772 513 772 505 c 0,12,13
 728 412 728 412 721 388 c 1,14,-1
 750 388 l 1,15,-1
 784 350 l 1,16,-1
 832 315 l 1,17,18
 767 276 767 276 753 243 c 1,19,-1
 721 243 l 1,20,-1
 772 126 l 1,21,-1
 643 111 l 1,22,-1
 658 85 l 1,23,24
 639 48 639 48 639 -18 c 1,25,-1
 630 -21 l 1,26,27
 583 7 583 7 532 13 c 1,28,-1
 520 38 l 1,29,-1
 441 -65 l 1,30,-1
 362 38 l 1,31,32
 348 7 348 7 343 7 c 2,33,-1
 312 10 l 1,34,-1
 245 -21 l 1,35,-1
 242 -12 l 1,36,37
 242 46 242 46 223 85 c 1,38,-1
 236 111 l 1,39,-1
 233 111 l 1,40,-1
 107 126 l 1,41,-1
 160 246 l 1,42,-1
 129 246 l 1,43,44
 106 284 106 284 50 315 c 1,45,-1
 50 319 l 1,46,47
 122 366 122 366 123 388 c 1,48,-1
 126 391 l 1,49,-1
 160 391 l 1,50,-1
 110 511 l 1,51,-1
 110 514 l 1,52,-1
 113 514 l 1,53,-1
 236 523 l 1,54,-1
 220 555 l 1,55,56
 242 581 242 581 242 653 c 1,57,-1
 245 656 l 1,58,-1
 249 656 l 1,59,-1
 315 627 l 1,60,-1
 340 627 l 1,61,-1
 365 596 l 1,62,63
 372 614 372 614 438 700 c 1,0,1
438 627 m 1,64,65
 438 620 438 620 384 536 c 1,66,-1
 438 438 l 1,67,-1
 441 438 l 1,68,-1
 498 533 l 1,69,-1
 498 536 l 1,70,-1
 444 627 l 1,71,-1
 438 627 l 1,64,65
268 590 m 1,72,-1
 268 555 l 1,73,74
 296 555 296 555 337 457 c 1,75,76
 353 436 353 436 397 344 c 1,77,-1
 394 341 l 1,78,-1
 390 341 l 1,79,-1
 186 334 l 1,80,-1
 182 331 l 1,81,-1
 179 331 l 1,82,-1
 145 347 l 1,83,-1
 119 334 l 1,84,-1
 119 300 l 1,85,-1
 151 287 l 1,86,-1
 176 300 l 1,87,-1
 394 293 l 1,88,-1
 397 290 l 1,89,-1
 286 92 l 1,90,-1
 264 82 l 1,91,-1
 264 47 l 1,92,-1
 296 35 l 1,93,94
 319 47 319 47 321 54 c 2,95,-1
 318 73 l 1,96,97
 408 225 408 225 441 265 c 1,98,99
 558 89 558 89 558 73 c 2,100,-1
 558 47 l 1,101,-1
 586 32 l 1,102,-1
 614 51 l 1,103,-1
 614 76 l 1,104,105
 568 113 568 113 545 177 c 1,106,-1
 482 290 l 1,107,-1
 485 293 l 1,108,-1
 703 300 l 1,109,-1
 731 284 l 1,110,-1
 734 284 l 1,111,112
 759 298 759 298 759 303 c 2,113,-1
 759 334 l 1,114,-1
 728 347 l 1,115,-1
 706 331 l 1,116,-1
 485 341 l 1,117,118
 583 546 583 546 602 546 c 1,119,120
 602 552 602 552 614 552 c 1,121,-1
 614 583 l 1,122,123
 597 601 597 601 583 602 c 1,124,125
 561 589 561 589 561 577 c 0,126,127
 561 548 561 548 526 501 c 1,128,-1
 444 369 l 1,129,-1
 441 369 l 1,130,131
 324 545 324 545 324 561 c 2,132,-1
 324 583 l 2,133,134
 324 592 324 592 293 602 c 1,135,-1
 268 590 l 1,72,-1
173 476 m 1,136,137
 176 462 176 462 223 378 c 1,138,-1
 337 378 l 1,139,140
 290 465 290 465 277 476 c 1,141,-1
 173 476 l 1,136,137
598 473 m 1,142,-1
 545 378 l 1,143,-1
 545 375 l 1,144,-1
 658 375 l 1,145,-1
 709 467 l 1,146,-1
 709 473 l 1,147,-1
 598 473 l 1,142,-1
170 164 m 1,148,-1
 170 161 l 1,149,-1
 277 161 l 1,150,151
 287 170 287 170 337 259 c 1,152,-1
 227 259 l 1,153,154
 216 250 216 250 170 164 c 1,148,-1
545 256 m 1,155,-1
 545 252 l 1,156,-1
 598 158 l 1,157,-1
 646 158 l 1,158,-1
 709 161 l 1,159,-1
 658 256 l 1,160,-1
 545 256 l 1,155,-1
438 196 m 1,161,-1
 384 98 l 1,162,163
 428 18 428 18 441 7 c 1,164,-1
 494 101 l 1,165,166
 463 161 463 161 438 196 c 1,161,-1
EndSplineSet
EndChar

StartChar: T
Encoding: 84 84 44
Width: 875
GlyphClass: 2
Flags: W
LayerCount: 2
Fore
SplineSet
710 256 m 1,0,-1
 426 256 l 1,1,-1
 530 330 l 1,2,3
 472 376 472 376 396 376 c 0,4,5
 357 376 357 376 343.5 361.5 c 128,-1,6
 330 347 330 347 330 309 c 0,7,8
 330 262 330 262 359 201 c 128,-1,9
 388 140 388 140 438 85 c 1,10,11
 438 85 438 85 356 2 c 1,12,13
 213 177 213 177 213 313 c 0,14,15
 213 398 213 398 264.5 445 c 128,-1,16
 316 492 316 492 394 492 c 0,17,18
 493 492 493 492 612 416 c 1,19,-1
 673 520 l 1,20,-1
 710 256 l 1,0,-1
EndSplineSet
EndChar

StartChar: U
Encoding: 85 85 45
Width: 875
GlyphClass: 2
Flags: W
LayerCount: 2
Fore
SplineSet
633 197 m 0,0,1
 633 113 633 113 576.5 56.5 c 128,-1,2
 520 0 520 0 439 0 c 0,3,4
 373 0 373 0 327 33 c 128,-1,5
 281 66 281 66 261.5 113 c 128,-1,6
 242 160 242 160 242 216 c 0,7,8
 242 308 242 308 317.5 425 c 128,-1,9
 393 542 393 542 496 628 c 1,10,11
 492 609 492 609 487 588 c 256,12,13
 482 567 482 567 482 537 c 0,14,15
 482 491 482 491 505.5 444 c 128,-1,16
 529 397 529 397 557.5 364 c 128,-1,17
 586 331 586 331 609.5 285.5 c 128,-1,18
 633 240 633 240 633 197 c 0,0,1
591 212 m 0,19,20
 591 235 591 235 576 270 c 128,-1,21
 561 305 561 305 541 315 c 1,22,23
 546 302 546 302 540.5 275 c 128,-1,24
 535 248 535 248 527 224 c 128,-1,25
 519 200 519 200 519 198 c 0,26,27
 519 184 519 184 529 173.5 c 128,-1,28
 539 163 539 163 554 163 c 0,29,30
 591 163 591 163 591 212 c 0,19,20
EndSplineSet
EndChar

StartChar: W
Encoding: 87 87 46
Width: 875
GlyphClass: 2
Flags: W
LayerCount: 2
Fore
SplineSet
818 264 m 1,0,1
 814 266 814 266 798.5 275 c 128,-1,2
 783 284 783 284 771.5 290.5 c 128,-1,3
 760 297 760 297 744.5 302.5 c 128,-1,4
 729 308 729 308 718 308 c 0,5,6
 704 308 704 308 698.5 300.5 c 128,-1,7
 693 293 693 293 693 283.5 c 128,-1,8
 693 274 693 274 684.5 266.5 c 128,-1,9
 676 259 676 259 657 259 c 0,10,11
 646 259 646 259 612 267 c 1,12,13
 593 238 593 238 593 230 c 0,14,15
 593 216 593 216 611 202.5 c 128,-1,16
 629 189 629 189 636 189 c 0,17,18
 645 189 645 189 654.5 191.5 c 128,-1,19
 664 194 664 194 668 195 c 128,-1,20
 672 196 672 196 676.5 193 c 128,-1,21
 681 190 681 190 682 180 c 128,-1,22
 683 170 683 170 683 150 c 0,23,24
 683 108 683 108 663 18 c 1,25,-1
 661 26 l 2,26,27
 659 35 659 35 656.5 43 c 128,-1,28
 654 51 654 51 650 62.5 c 128,-1,29
 646 74 646 74 641.5 83.5 c 128,-1,30
 637 93 637 93 632 101.5 c 128,-1,31
 627 110 627 110 620.5 115 c 128,-1,32
 614 120 614 120 608 120 c 0,33,34
 604 120 604 120 591.5 114 c 128,-1,35
 579 108 579 108 573 108 c 0,36,37
 542 108 542 108 521 161 c 1,38,39
 475 154 475 154 475 114 c 0,40,41
 475 97 475 97 485.5 88 c 128,-1,42
 496 79 496 79 505.5 76.5 c 128,-1,43
 515 74 515 74 513.5 63 c 128,-1,44
 512 52 512 52 492 29 c 0,45,46
 474 9 474 9 430.5 -21 c 128,-1,47
 387 -51 387 -51 377 -60 c 1,48,49
 391 -43 391 -43 406 -11 c 128,-1,50
 421 21 421 21 421 38 c 0,51,52
 421 49 421 49 409.5 57.5 c 128,-1,53
 398 66 398 66 388 72.5 c 128,-1,54
 378 79 378 79 374 97.5 c 128,-1,55
 370 116 370 116 385 146 c 1,56,57
 372 161 372 161 354 161 c 0,58,59
 323 161 323 161 316 147.5 c 128,-1,60
 309 134 309 134 315 118 c 128,-1,61
 321 102 321 102 311 88.5 c 128,-1,62
 301 75 301 75 266 75 c 0,63,64
 227 75 227 75 135 93 c 1,65,66
 191 107 191 107 215 121 c 128,-1,67
 239 135 239 135 239 147.5 c 128,-1,68
 239 160 239 160 235 172.5 c 128,-1,69
 231 185 231 185 239.5 201 c 128,-1,70
 248 217 248 217 279 233 c 1,71,72
 268 279 268 279 231 279 c 0,73,74
 224 279 224 279 211.5 261.5 c 128,-1,75
 199 244 199 244 187 239 c 0,76,77
 170 231 170 231 148 252.5 c 128,-1,78
 126 274 126 274 97 316.5 c 128,-1,79
 68 359 68 359 62 366 c 1,80,81
 69 363 69 363 89 352 c 128,-1,82
 109 341 109 341 125 334.5 c 128,-1,83
 141 328 141 328 156 328 c 0,84,85
 168 328 168 328 175 335.5 c 128,-1,86
 182 343 182 343 184.5 352.5 c 128,-1,87
 187 362 187 362 195.5 369.5 c 128,-1,88
 204 377 204 377 219 377 c 0,89,90
 223 377 223 377 259 365 c 1,91,92
 278 394 278 394 278 408 c 0,93,94
 278 420 278 420 263 435.5 c 128,-1,95
 248 451 248 451 237 451 c 0,96,97
 232 451 232 451 223.5 448.5 c 128,-1,98
 215 446 215 446 209.5 445 c 128,-1,99
 204 444 204 444 198.5 446.5 c 128,-1,100
 193 449 193 449 190.5 460 c 128,-1,101
 188 471 188 471 188 490 c 0,102,103
 188 498 188 498 211 627 c 1,104,105
 211 610 211 610 226.5 565.5 c 128,-1,106
 242 521 242 521 264 521 c 0,107,108
 268 521 268 521 280 527 c 128,-1,109
 292 533 292 533 299 533 c 0,110,111
 316 533 316 533 327.5 520 c 128,-1,112
 339 507 339 507 344.5 493.5 c 128,-1,113
 350 480 350 480 352 480 c 0,114,115
 373 480 373 480 387 495.5 c 128,-1,116
 401 511 401 511 401 531 c 0,117,118
 401 546 401 546 395 554 c 128,-1,119
 389 562 389 562 382.5 564.5 c 128,-1,120
 376 567 376 567 370 571 c 128,-1,121
 364 575 364 575 364 582 c 0,122,123
 364 604 364 604 423.5 649 c 128,-1,124
 483 694 483 694 499 700 c 1,125,126
 472 664 472 664 462 641.5 c 128,-1,127
 452 619 452 619 456.5 608.5 c 128,-1,128
 461 598 461 598 469.5 589 c 128,-1,129
 478 580 478 580 488 571.5 c 128,-1,130
 498 563 498 563 500.5 544 c 128,-1,131
 503 525 503 525 495 495 c 1,132,133
 520 476 520 476 536 476 c 0,134,135
 557 476 557 476 562.5 490.5 c 128,-1,136
 568 505 568 505 564.5 523.5 c 128,-1,137
 561 542 561 542 561 543 c 0,138,139
 565 557 565 557 616 557 c 0,140,141
 648 557 648 557 749 539 c 1,142,143
 742 537 742 537 725 533 c 128,-1,144
 708 529 708 529 696 525.5 c 128,-1,145
 684 522 684 522 670.5 517 c 128,-1,146
 657 512 657 512 650 506.5 c 128,-1,147
 643 501 643 501 643 494 c 128,-1,148
 643 487 643 487 648 470 c 128,-1,149
 653 453 653 453 653 445 c 0,150,151
 653 435 653 435 644.5 426.5 c 128,-1,152
 636 418 636 418 620.5 408 c 128,-1,153
 605 398 605 398 601 395 c 1,154,155
 603 391 603 391 607.5 382 c 128,-1,156
 612 373 612 373 615 369 c 128,-1,157
 618 365 618 365 625.5 361 c 128,-1,158
 633 357 633 357 644 357 c 0,159,160
 659 357 659 357 665 374.5 c 128,-1,161
 671 392 671 392 689 398 c 0,162,163
 710 404 710 404 731 383 c 128,-1,164
 752 362 752 362 778.5 320.5 c 128,-1,165
 805 279 805 279 818 264 c 1,0,1
596 322 m 0,166,167
 596 383 596 383 550 431.5 c 128,-1,168
 504 480 504 480 438 480 c 0,169,170
 373 480 373 480 326 433.5 c 128,-1,171
 279 387 279 387 278 322 c 0,172,173
 278 263 278 263 324.5 214 c 128,-1,174
 371 165 371 165 438 165 c 0,175,176
 501 165 501 165 549 208.5 c 128,-1,177
 597 252 597 252 596 322 c 0,166,167
581 322 m 0,178,179
 581 259 581 259 538.5 220 c 128,-1,180
 496 181 496 181 438 181 c 0,181,182
 379 181 379 181 337 223 c 128,-1,183
 295 265 295 265 295 322 c 128,-1,184
 295 379 295 379 337.5 421 c 128,-1,185
 380 463 380 463 438 463 c 128,-1,186
 496 463 496 463 538.5 421 c 128,-1,187
 581 379 581 379 581 322 c 0,178,179
EndSplineSet
EndChar

StartChar: X
Encoding: 88 88 47
Width: 875
GlyphClass: 2
Flags: W
LayerCount: 2
Fore
SplineSet
479 80 m 1,0,-1
 479 105 l 1,1,2
 534 112 534 112 534 136 c 0,3,4
 534 154 534 154 519 172 c 2,5,-1
 418 294 l 1,6,-1
 338 202 l 2,7,8
 308 168 308 168 308 146 c 0,9,10
 308 112 308 112 363 105 c 1,11,-1
 363 80 l 1,12,-1
 168 80 l 1,13,-1
 168 105 l 1,14,15
 203 112 203 112 224.5 126.5 c 128,-1,16
 246 141 246 141 280 180 c 2,17,-1
 400 316 l 1,18,-1
 261 481 l 2,19,20
 233 513 233 513 214.5 525 c 128,-1,21
 196 537 196 537 163 541 c 1,22,-1
 163 567 l 1,23,-1
 393 567 l 1,24,-1
 393 542 l 2,25,26
 392 542 392 542 383.5 540 c 128,-1,27
 375 538 375 538 369.5 536.5 c 128,-1,28
 364 535 364 535 356.5 532.5 c 128,-1,29
 349 530 349 530 345 525.5 c 128,-1,30
 341 521 341 521 341 515 c 2,31,-1
 341 511 l 2,32,33
 341 497 341 497 355 480 c 2,34,-1
 447 371 l 1,35,-1
 521 460 l 2,36,37
 541 483 541 483 541 502 c 0,38,39
 541 518 541 518 530 527 c 128,-1,40
 519 536 519 536 492 541 c 1,41,-1
 492 567 l 1,42,-1
 675 567 l 1,43,-1
 675 542 l 1,44,45
 655 538 655 538 642 533 c 0,46,47
 630 528 630 528 614 514.5 c 128,-1,48
 598 501 598 501 583.5 486.5 c 128,-1,49
 569 472 569 472 549 449 c 128,-1,50
 529 426 529 426 517.5 412.5 c 128,-1,51
 506 399 506 399 487.5 376 c 128,-1,52
 469 353 469 353 466 349 c 1,53,-1
 614 171 l 2,54,55
 642 138 642 138 662.5 123.5 c 128,-1,56
 683 109 683 109 712 105 c 1,57,-1
 712 80 l 1,58,-1
 479 80 l 1,0,-1
EndSplineSet
EndChar

StartChar: Y
Encoding: 89 89 48
Width: 875
GlyphClass: 2
Flags: W
LayerCount: 2
Fore
SplineSet
477 163 m 2,0,1
 477 96 477 96 548 96 c 1,2,-1
 548 69 l 1,3,-1
 331 69 l 1,4,-1
 331 96 l 1,5,6
 366 96 366 96 384.5 111.5 c 128,-1,7
 403 127 403 127 403 163 c 2,8,-1
 403 272 l 1,9,-1
 255 489 l 2,10,11
 242 508 242 508 227.5 516 c 128,-1,12
 213 524 213 524 190 526 c 1,13,-1
 190 553 l 1,14,-1
 403 553 l 1,15,-1
 403 526 l 1,16,17
 360 526 360 526 351 509 c 0,18,19
 347 503 347 503 347 496 c 0,20,21
 347 483 347 483 360 464 c 2,22,-1
 466 310 l 1,23,-1
 548 430 l 2,24,25
 567 458 567 458 567 481 c 0,26,27
 567 489 567 489 565 496 c 0,28,29
 556 524 556 524 514 526 c 1,30,-1
 514 553 l 1,31,-1
 689 553 l 1,32,-1
 689 526 l 1,33,34
 668 524 668 524 651 509.5 c 128,-1,35
 634 495 634 495 607 457 c 2,36,-1
 477 272 l 1,37,-1
 477 163 l 2,0,1
EndSplineSet
EndChar

StartChar: Z
Encoding: 90 90 49
Width: 874
GlyphClass: 2
Flags: W
LayerCount: 2
Fore
SplineSet
618 69 m 1,0,-1
 210 69 l 1,1,-1
 210 90 l 1,2,-1
 534 523 l 1,3,-1
 390 523 l 2,4,5
 365 523 365 523 347.5 519.5 c 128,-1,6
 330 516 330 516 316.5 507 c 128,-1,7
 303 498 303 498 292.5 482.5 c 128,-1,8
 282 467 282 467 272 443 c 1,9,-1
 245 443 l 1,10,-1
 245 553 l 1,11,-1
 633 553 l 1,12,-1
 633 533 l 1,13,-1
 306 99 l 1,14,-1
 448 99 l 2,15,16
 484 99 484 99 508 103 c 128,-1,17
 532 107 532 107 550.5 117.5 c 128,-1,18
 569 128 569 128 585.5 147 c 128,-1,19
 602 166 602 166 622 195 c 1,20,-1
 650 195 l 1,21,-1
 618 69 l 1,0,-1
EndSplineSet
EndChar

StartChar: bracketleft
Encoding: 91 91 50
Width: 1000
GlyphClass: 2
Flags: W
LayerCount: 2
Fore
SplineSet
879 503 m 1,0,1
 526 543 526 543 129 501 c 1,2,3
 210 268 210 268 144 190 c 1,4,-1
 510 71 l 1,5,-1
 870 188 l 1,6,7
 795 274 795 274 879 503 c 1,0,1
956 546 m 1,8,9
 854 266 854 266 945 161 c 1,10,-1
 510 18 l 1,11,-1
 68 163 l 1,12,13
 148 259 148 259 50 543 c 1,14,15
 530 594 530 594 956 546 c 1,8,9
EndSplineSet
EndChar

StartChar: backslash
Encoding: 92 92 51
Width: 1000
GlyphClass: 2
Flags: W
LayerCount: 2
Fore
SplineSet
124 178 m 1,0,1
 499 138 499 138 892 179 c 1,2,3
 791 330 791 330 890 491 c 1,4,5
 484 532 484 532 124 494 c 1,6,7
 225 329 225 329 124 178 c 1,0,1
45 136 m 1,8,9
 166 323 166 323 45 526 c 1,10,11
 477 573 477 573 965 523 c 1,12,13
 846 324 846 324 967 137 c 1,14,15
 495 86 495 86 45 136 c 1,8,9
EndSplineSet
EndChar

StartChar: bracketright
Encoding: 93 93 52
Width: 1000
GlyphClass: 2
Flags: W
LayerCount: 2
Fore
SplineSet
132 181 m 1,0,1
 486 141 486 141 886 183 c 1,2,3
 804 417 804 417 871 496 c 1,4,-1
 503 615 l 1,5,-1
 141 497 l 1,6,7
 217 411 217 411 132 181 c 1,0,1
52 137 m 1,8,9
 154 417 154 417 63 522 c 1,10,-1
 498 665 l 1,11,-1
 940 520 l 1,12,13
 860 424 860 424 958 140 c 1,14,15
 478 89 478 89 52 137 c 1,8,9
EndSplineSet
EndChar

StartChar: asciicircum
Encoding: 94 94 53
Width: 875
GlyphClass: 2
Flags: W
LayerCount: 2
Fore
SplineSet
689 137 m 0,0,1
 642 78 642 78 571 78 c 0,2,3
 488 78 488 78 437 147 c 0,4,5
 393 208 393 208 393 289 c 0,6,7
 393 376 393 376 442 449 c 0,8,9
 493 522 493 522 576 554 c 0,10,11
 599 562 599 562 624 566 c 128,-1,12
 649 570 649 570 686 571 c 1,13,-1
 686 528 l 1,14,15
 625 524 625 524 587 504.5 c 128,-1,16
 549 485 549 485 524 449 c 0,17,18
 516 438 516 438 509.5 424 c 128,-1,19
 503 410 503 410 493 381 c 1,20,21
 526 401 526 401 548 408 c 128,-1,22
 570 415 570 415 590 415 c 0,23,24
 654 415 654 415 695 365 c 0,25,26
 731 320 731 320 731 257 c 0,27,28
 731 188 731 188 689 137 c 0,0,1
169 76 m 1,29,-1
 169 120 l 1,30,-1
 193 120 l 2,31,32
 217 120 217 120 230 134 c 128,-1,33
 243 148 243 148 243 180 c 2,34,-1
 243 431 l 2,35,36
 243 465 243 465 232 478 c 128,-1,37
 221 491 221 491 202 491 c 2,38,-1
 171 491 l 1,39,-1
 171 535 l 1,40,-1
 189 535 l 2,41,42
 245 535 245 535 297 572 c 1,43,-1
 332 572 l 1,44,-1
 332 180 l 2,45,46
 332 148 332 148 345 134 c 128,-1,47
 358 120 358 120 381 120 c 2,48,-1
 401 120 l 1,49,-1
 401 76 l 1,50,-1
 169 76 l 1,29,-1
626 319 m 0,51,52
 606 361 606 361 568 361 c 0,53,54
 545 361 545 361 524 348 c 128,-1,55
 503 335 503 335 484 306 c 0,56,57
 483 298 483 298 483 292 c 2,58,-1
 483 280 l 2,59,60
 483 225 483 225 502 180 c 0,61,62
 514 150 514 150 531.5 137 c 128,-1,63
 549 124 549 124 569 124 c 0,64,65
 606 124 606 124 625 161 c 0,66,67
 640 192 640 192 640 237 c 0,68,69
 640 286 640 286 626 319 c 0,51,52
EndSplineSet
EndChar

StartChar: underscore
Encoding: 95 95 54
Width: 1000
GlyphClass: 2
Flags: W
LayerCount: 2
Fore
SplineSet
502 62 m 1,0,-1
 1013 214 l 1,1,2
 1004 439 1004 439 1100 518 c 1,3,-1
 730 629 l 1,4,5
 497 424 497 424 263 629 c 1,6,-1
 -114 524 l 1,7,8
 -9 422 -9 422 -17 213 c 1,9,-1
 502 62 l 1,0,-1
497 0 m 1,10,-1
 -80 186 l 1,11,12
 -71 445 -71 445 -187 570 c 1,13,-1
 231 700 l 1,14,15
 491 447 491 447 750 700 c 1,16,-1
 1161 563 l 1,17,18
 1055 465 1055 465 1065 188 c 1,19,-1
 497 0 l 1,10,-1
EndSplineSet
EndChar

StartChar: grave
Encoding: 96 96 55
Width: 0
GlyphClass: 2
Flags: W
LayerCount: 2
Fore
SplineSet
371 409 m 1,0,-1
 468 409 l 2,1,2
 491 409 491 409 502.5 416.5 c 128,-1,3
 514 424 514 424 525 448 c 1,4,-1
 555 448 l 1,5,-1
 526 361 l 1,6,-1
 304 361 l 1,7,-1
 304 385 l 1,8,9
 324 405 324 405 373 448 c 0,10,11
 409 480 409 480 435 507 c 0,12,13
 476 548 476 548 476 578 c 0,14,15
 476 601 476 601 459.5 617.5 c 128,-1,16
 443 634 443 634 421 634 c 0,17,18
 368 634 368 634 334 563 c 1,19,-1
 304 573 l 1,20,21
 324 625 324 625 358 652 c 128,-1,22
 392 679 392 679 434 679 c 0,23,24
 477 679 477 679 508 652.5 c 128,-1,25
 539 626 539 626 539 588 c 0,26,27
 539 576 539 576 536 565 c 128,-1,28
 533 554 533 554 525.5 543 c 128,-1,29
 518 532 518 532 512 525 c 128,-1,30
 506 518 506 518 493.5 507 c 128,-1,31
 481 496 481 496 475.5 491.5 c 128,-1,32
 470 487 470 487 454 476 c 128,-1,33
 438 465 438 465 434 462 c 0,34,35
 398 435 398 435 371 409 c 1,0,-1
EndSplineSet
EndChar

StartChar: a
Encoding: 97 97 56
Width: 875
GlyphClass: 2
Flags: W
LayerCount: 2
Fore
SplineSet
425 64 m 0,0,1
 364 72 364 72 310 116 c 0,2,3
 264 153 264 153 231 211 c 2,4,-1
 225 222 l 1,5,-1
 218 212 l 2,6,7
 158 128 158 128 66 83 c 0,8,9
 43 72 43 72 40 71 c 2,10,-1
 37 70 l 1,11,-1
 37 339 l 1,12,-1
 37 607 l 1,13,-1
 40 606 l 2,14,15
 45 605 45 605 68.5 593 c 128,-1,16
 92 581 92 581 101 575 c 0,17,18
 173 530 173 530 220 467 c 0,19,20
 227 458 227 458 228 458 c 128,-1,21
 229 458 229 458 235 469.5 c 128,-1,22
 241 481 241 481 251 496 c 0,23,24
 302 573 302 573 364 604 c 0,25,26
 406 626 406 626 454 624 c 0,27,28
 487 623 487 623 520 615 c 0,29,30
 659 581 659 581 881 408 c 0,31,32
 953 353 953 353 963 344 c 1,33,34
 963 344 963 344 960.5 341.5 c 128,-1,35
 958 339 958 339 914 304 c 0,36,37
 810 220 810 220 733 171 c 0,38,39
 561 62 561 62 446 63 c 0,40,41
 429 63 429 63 425 64 c 0,0,1
724 311 m 0,42,43
 797 318 797 318 854 345 c 0,44,45
 861 348 861 348 869 352.5 c 128,-1,46
 877 357 877 357 881.5 360.5 c 128,-1,47
 886 364 886 364 885 365 c 256,48,49
 884 366 884 366 854 388 c 0,50,51
 664 527 664 527 564 566 c 0,52,53
 511 587 511 587 462 591 c 0,54,55
 423 594 423 594 390 578 c 0,56,57
 343 556 343 556 305 506 c 128,-1,58
 267 456 267 456 255 402 c 0,59,60
 253 389 253 389 252.5 372 c 128,-1,61
 252 355 252 355 253 354.5 c 128,-1,62
 254 354 254 354 266 363 c 0,63,64
 314 400 314 400 358 412 c 0,65,66
 371 415 371 415 390 416 c 0,67,68
 420 417 420 417 447 408 c 0,69,70
 484 396 484 396 553 347 c 0,71,72
 596 317 596 317 668 311 c 0,73,74
 676 310 676 310 695 310 c 128,-1,75
 714 310 714 310 724 311 c 0,42,43
EndSplineSet
EndChar

StartChar: b
Encoding: 98 98 57
Width: 0
GlyphClass: 2
Flags: W
LayerCount: 2
Fore
SplineSet
555 488 m 2,0,1
 555 448 555 448 526 434 c 0,2,3
 518 430 518 430 474 422 c 0,4,5
 444 418 444 418 444 400 c 2,6,-1
 444 352 l 2,7,8
 444 348 444 348 446 333 c 2,9,-1
 448 313 l 2,10,11
 448 304 448 304 444 284 c 1,12,13
 432 282 432 282 416 278 c 1,14,15
 413 296 413 296 413 303 c 0,16,17
 413 307 413 307 414 312.5 c 128,-1,18
 415 318 415 318 415 321 c 0,19,20
 415 326 415 326 407 346 c 1,21,-1
 398 346 l 1,22,23
 397 342 397 342 397 336 c 0,24,25
 400 327 400 327 398 320 c 1,26,27
 388 312 388 312 370 300 c 0,28,29
 366 301 366 301 367 301 c 2,30,-1
 367 344 l 2,31,32
 366 347 366 347 362 347 c 2,33,-1
 354 347 l 1,34,-1
 346 290 l 1,35,-1
 327 290 l 1,36,37
 322 310 322 310 311 349 c 1,38,-1
 306 349 l 1,39,40
 299 327 299 327 299 326 c 0,41,42
 299 323 299 323 300.5 316.5 c 128,-1,43
 302 310 302 310 302 308 c 0,44,45
 302 305 302 305 301 299 c 2,46,-1
 299 284 l 2,47,48
 298 283 298 283 296 283 c 0,49,50
 277 283 277 283 271.5 292 c 128,-1,51
 266 301 266 301 267 317 c 2,52,-1
 272 390 l 2,53,54
 272 391 272 391 273.5 394.5 c 128,-1,55
 275 398 275 398 275 399 c 0,56,57
 275 404 275 404 264 418 c 0,58,59
 262 418 262 418 245 422 c 0,60,61
 234 425 234 425 205 431 c 0,62,63
 163 439 163 439 163 498 c 0,64,65
 163 586 163 586 236 644 c 1,66,67
 238 629 238 629 246 602 c 1,68,69
 251 600 251 600 270 595 c 0,70,71
 273 595 273 595 306 582 c 1,72,73
 289 592 289 592 262 616 c 0,74,75
 251 628 251 628 251 656 c 0,76,77
 251 663 251 663 275 672 c 0,78,79
 296 681 296 681 306 681 c 0,80,81
 338 686 338 686 355 686 c 0,82,83
 431 686 431 686 478 647 c 1,84,85
 463 629 463 629 426 609 c 1,86,87
 440 609 440 609 468 621 c 128,-1,88
 496 633 496 633 492 633 c 1,89,90
 497 633 497 633 511 613 c 0,91,92
 522 599 522 599 528 587 c 0,93,94
 548 553 548 553 554 513 c 0,95,96
 554 500 554 500 555 494 c 2,97,-1
 555 488 l 2,0,1
526 487 m 0,98,99
 526 512 526 512 508.5 531 c 128,-1,100
 491 550 491 550 466 550 c 128,-1,101
 441 550 441 550 419 526.5 c 128,-1,102
 397 503 397 503 397 478 c 0,103,104
 397 457 397 457 418 457 c 2,105,-1
 487 457 l 2,106,107
 526 457 526 457 526 487 c 0,98,99
389 403 m 2,108,-1
 389 422 l 1,109,-1
 381 438 l 2,110,111
 377 449 377 449 368 472 c 1,112,-1
 362 401 l 2,113,114
 362 392 362 392 358 392 c 0,115,116
 355 392 355 392 354 394 c 0,117,118
 350 457 350 457 350 449 c 2,119,-1
 350 470 l 2,120,121
 349 473 349 473 346 473 c 0,122,123
 327 451 327 451 327 404 c 0,124,125
 327 378 327 378 331 372 c 1,126,127
 336 373 336 373 342 377 c 0,128,129
 344 378 344 378 355 378 c 0,130,131
 367 378 367 378 384 370 c 0,132,133
 389 370 389 370 389 403 c 2,108,-1
324 478 m 0,134,135
 324 504 324 504 301.5 527.5 c 128,-1,136
 279 551 279 551 253 551 c 0,137,138
 229 551 229 551 211.5 531.5 c 128,-1,139
 194 512 194 512 194 488 c 0,140,141
 194 468 194 468 215 461 c 0,142,143
 227 457 227 457 250 457 c 2,144,-1
 284 457 l 2,145,146
 324 456 324 456 324 478 c 0,134,135
EndSplineSet
EndChar

StartChar: c
Encoding: 99 99 58
Width: 1045
GlyphClass: 2
Flags: W
LayerCount: 2
Fore
SplineSet
902 151 m 2,0,1
 902 110 902 110 873 96 c 0,2,3
 864 92 864 92 820 84 c 0,4,5
 792 79 792 79 792 62 c 2,6,-1
 792 13 l 2,7,8
 792 10 792 10 793 -5 c 2,9,-1
 795 -23 l 2,10,11
 795 -34 795 -34 790 -54 c 1,12,13
 779 -57 779 -57 764 -60 c 1,14,15
 759 -41 759 -41 759 -35 c 0,16,17
 759 -32 759 -32 760.5 -25.5 c 128,-1,18
 762 -19 762 -19 762 -17 c 0,19,20
 762 -13 762 -13 755 6 c 1,21,-1
 746 6 l 2,22,23
 743 4 743 4 745 0 c 0,24,25
 746 -11 746 -11 746 -18 c 1,26,27
 736 -26 736 -26 717 -37 c 0,28,29
 714 -36 714 -36 715 -36 c 2,30,-1
 715 6 l 2,31,32
 714 9 714 9 708 9 c 2,33,-1
 701 9 l 1,34,-1
 694 -48 l 1,35,36
 685 -49 685 -49 673 -48 c 1,37,38
 669 -28 669 -28 658 10 c 1,39,-1
 654 10 l 1,40,41
 647 -10 647 -10 646 -11 c 0,42,43
 646 -14 646 -14 647.5 -21 c 128,-1,44
 649 -28 649 -28 649 -31 c 2,45,-1
 649 -40 l 1,46,-1
 646 -54 l 2,47,48
 645 -56 645 -56 643 -56 c 0,49,50
 625 -56 625 -56 619 -46.5 c 128,-1,51
 613 -37 613 -37 613 -21 c 2,52,-1
 619 52 l 2,53,54
 619 53 619 53 620 56.5 c 128,-1,55
 621 60 621 60 621 61 c 0,56,57
 621 65 621 65 611 79 c 0,58,59
 610 80 610 80 593 84 c 0,60,61
 582 87 582 87 552 92 c 0,62,63
 511 100 511 100 511 160 c 0,64,65
 511 248 511 248 582 307 c 1,66,67
 586 290 586 290 593 262 c 1,68,69
 598 261 598 261 616 257 c 0,70,71
 620 256 620 256 654 244 c 1,72,73
 637 255 637 255 610 277 c 0,74,75
 599 290 599 290 599 318 c 0,76,77
 599 325 599 325 623 334 c 0,78,79
 642 342 642 342 652 343 c 0,80,81
 685 347 685 347 703 347 c 0,82,83
 779 347 779 347 825 309 c 1,84,85
 810 291 810 291 773 272 c 1,86,87
 788 270 788 270 816 282.5 c 128,-1,88
 844 295 844 295 838 295 c 1,89,90
 844 295 844 295 858 275 c 0,91,92
 870 261 870 261 876 249 c 0,93,94
 896 216 896 216 902 175 c 1,95,-1
 902 156 l 1,96,-1
 902 151 l 2,0,1
873 149 m 0,97,98
 873 174 873 174 855 193 c 128,-1,99
 837 212 837 212 814 212 c 0,100,101
 788 212 788 212 765.5 188.5 c 128,-1,102
 743 165 743 165 743 139 c 0,103,104
 743 118 743 118 764 118 c 2,105,-1
 834 119 l 2,106,107
 873 119 873 119 873 149 c 0,97,98
737 65 m 2,108,-1
 737 83 l 1,109,110
 733 91 733 91 728 100 c 0,111,112
 725 112 725 112 715 134 c 1,113,-1
 708 62 l 2,114,115
 708 54 708 54 704 54 c 0,116,117
 702 54 702 54 701 56 c 0,118,119
 697 119 697 119 697 112 c 2,120,-1
 697 132 l 2,121,122
 695 134 695 134 694 134 c 0,123,124
 673 113 673 113 673 66 c 0,125,126
 673 40 673 40 678 34 c 0,127,128
 682 35 682 35 689 38 c 0,129,130
 691 39 691 39 703 39 c 128,-1,131
 715 39 715 39 730 32 c 0,132,133
 737 32 737 32 737 65 c 2,108,-1
671 139 m 0,134,135
 671 165 671 165 648 188.5 c 128,-1,136
 625 212 625 212 599 212 c 0,137,138
 577 212 577 212 559.5 193 c 128,-1,139
 542 174 542 174 542 149 c 0,140,141
 542 130 542 130 561 123 c 0,142,143
 574 119 574 119 597 119 c 2,144,-1
 630 118 l 2,145,146
 671 118 671 118 671 139 c 0,134,135
EndSplineSet
EndChar

StartChar: g
Encoding: 103 103 59
Width: 0
GlyphClass: 2
Flags: W
LayerCount: 2
Fore
SplineSet
562 472 m 0,0,1
 562 460 562 460 553 450 c 128,-1,2
 544 440 544 440 531 440 c 0,3,4
 511 440 511 440 502 459 c 1,5,-1
 474 460 l 2,6,7
 464 460 464 460 437 452 c 0,8,9
 409 444 409 444 403 439 c 0,10,11
 397 431 397 431 393 404 c 0,12,13
 389 382 389 382 389 372 c 0,14,15
 389 356 389 356 394 348 c 128,-1,16
 399 340 399 340 415.5 335 c 128,-1,17
 432 330 432 330 436 329 c 0,18,19
 438 329 438 329 444 330 c 2,20,-1
 451 330 l 2,21,22
 459 330 459 330 468 327 c 0,23,24
 480 323 480 323 479 317 c 1,25,26
 470 318 470 318 448 314 c 1,27,-1
 466 305 l 1,28,29
 466 297 466 297 445 297 c 0,30,31
 438 297 438 297 429 300 c 128,-1,32
 420 303 420 303 416 303 c 2,33,-1
 409 303 l 1,34,35
 409 296 409 296 405 284 c 1,36,37
 394 284 394 284 380.5 296 c 128,-1,38
 367 308 367 308 363 308 c 128,-1,39
 359 308 359 308 352.5 296 c 128,-1,40
 346 284 346 284 346 280 c 1,41,42
 337 284 337 284 332 296 c 0,43,44
 329 304 329 304 327 313 c 1,45,46
 320 312 320 312 303 287 c 1,47,-1
 301 287 l 2,48,49
 299 288 299 288 296 300 c 2,50,-1
 292 313 l 1,51,52
 272 318 272 318 256 318 c 0,53,54
 247 318 247 318 232 314 c 1,55,-1
 214 316 l 1,56,57
 217 320 217 320 236 330 c 0,58,59
 256 343 256 343 267 343 c 0,60,61
 269 343 269 343 272.5 342.5 c 128,-1,62
 276 342 276 342 277 342 c 0,63,64
 281 342 281 342 291 346.5 c 128,-1,65
 301 351 301 351 302 355 c 128,-1,66
 303 359 303 359 303 373 c 0,67,68
 303 408 303 408 285 426 c 0,69,70
 269 440 269 440 233 448 c 1,71,72
 223 413 223 413 177 413 c 0,73,74
 163 413 163 413 148 430.5 c 128,-1,75
 133 448 133 448 133 463 c 0,76,77
 133 486 133 486 152 500 c 1,78,79
 137 516 137 516 137 533 c 0,80,81
 137 548 137 548 146 560 c 128,-1,82
 155 572 155 572 171 573 c 1,83,84
 169 594 169 594 184 600 c 1,85,86
 177 607 177 607 177 625 c 0,87,88
 177 645 177 645 190.5 658.5 c 128,-1,89
 204 672 204 672 224 672 c 0,90,91
 246 672 246 672 260 656 c 1,92,93
 279 718 279 718 337 718 c 0,94,95
 368 718 368 718 392 693 c 2,96,-1
 401 684 l 1,97,98
 393 684 393 684 408 686.5 c 128,-1,99
 423 689 423 689 429 689 c 0,100,101
 453 689 453 689 471 671 c 0,102,103
 488 655 488 655 493 630 c 1,104,105
 498 629 498 629 507 626 c 0,106,107
 520 620 520 620 520 603 c 0,108,109
 520 600 520 600 515 591 c 1,110,111
 555 569 555 569 555 530 c 0,112,113
 555 519 555 519 546 499 c 1,114,115
 562 490 562 490 562 472 c 0,0,1
415 558 m 1,116,117
 409 560 409 560 388 571 c 1,118,-1
 388 517 l 1,119,120
 416 534 416 534 415 558 c 1,116,117
449 485 m 1,121,-1
 436 502 l 1,122,123
 424 494 424 494 411 485 c 128,-1,124
 398 476 398 476 389 464 c 1,125,126
 416 479 416 479 449 485 c 1,121,-1
336 541 m 1,127,-1
 336 568 l 1,128,129
 321 571 321 571 318 571 c 2,130,-1
 318 560 l 1,131,-1
 336 541 l 1,127,-1
298 521 m 1,132,133
 289 532 289 532 282 543 c 1,134,135
 256 537 256 537 256 528 c 1,136,137
 264 528 264 528 278 524.5 c 128,-1,138
 292 521 292 521 298 521 c 1,132,133
310 446 m 1,139,-1
 310 453 l 2,140,141
 310 468 310 468 295.5 479.5 c 128,-1,142
 281 491 281 491 267 491 c 0,143,144
 250 491 250 491 236 482 c 1,145,146
 268 485 268 485 310 446 c 1,139,-1
EndSplineSet
EndChar

StartChar: h
Encoding: 104 104 60
Width: 1045
GlyphClass: 2
Flags: W
LayerCount: 2
Fore
SplineSet
893 125 m 0,0,1
 893 112 893 112 884 103 c 128,-1,2
 875 94 875 94 863 94 c 0,3,4
 846 94 846 94 837 111 c 1,5,-1
 811 112 l 2,6,7
 802 112 802 112 777 104 c 0,8,9
 751 99 751 99 747 93 c 0,10,11
 741 86 741 86 737 62 c 0,12,13
 733 42 733 42 733 31 c 0,14,15
 733 17 733 17 738.5 9.5 c 128,-1,16
 744 2 744 2 758.5 -2.5 c 128,-1,17
 773 -7 773 -7 776 -7 c 2,18,-1
 784 -7 l 1,19,-1
 790 -7 l 2,20,21
 798 -7 798 -7 806 -9 c 0,22,23
 818 -11 818 -11 815 -19 c 1,24,25
 807 -16 807 -16 788 -21 c 1,26,-1
 803 -28 l 1,27,28
 803 -36 803 -36 784 -36 c 0,29,30
 779 -36 779 -36 770.5 -33.5 c 128,-1,31
 762 -31 762 -31 759 -31 c 2,32,-1
 751 -31 l 1,33,34
 751 -36 751 -36 749 -48 c 1,35,36
 738 -48 738 -48 725 -37 c 128,-1,37
 712 -26 712 -26 710 -26 c 0,38,39
 706 -26 706 -26 700 -37 c 128,-1,40
 694 -48 694 -48 694 -52 c 1,41,42
 686 -48 686 -48 681 -36 c 0,43,44
 679 -29 679 -29 676 -22 c 1,45,46
 671 -23 671 -23 655 -45 c 1,47,-1
 653 -45 l 2,48,49
 651 -44 651 -44 647 -33 c 2,50,-1
 643 -22 l 1,51,52
 627 -16 627 -16 611 -16 c 0,53,54
 604 -16 604 -16 589 -20 c 1,55,-1
 573 -20 l 1,56,57
 577 -15 577 -15 593 -7 c 0,58,59
 612 4 612 4 623 4 c 0,60,61
 624 4 624 4 626.5 3.5 c 128,-1,62
 629 3 629 3 632 3 c 0,63,64
 636 3 636 3 644.5 7.5 c 128,-1,65
 653 12 653 12 654 15.5 c 128,-1,66
 655 19 655 19 655 33 c 0,67,68
 655 64 655 64 638 82 c 0,69,70
 624 94 624 94 590 101 c 1,71,72
 581 68 581 68 539 68 c 0,73,74
 527 68 527 68 513 85.5 c 128,-1,75
 499 103 499 103 499 115 c 0,76,77
 499 135 499 135 516 148 c 1,78,79
 502 165 502 165 502 178 c 0,80,81
 502 193 502 193 511 204 c 128,-1,82
 520 215 520 215 534 216 c 1,83,84
 533 234 533 234 546 241 c 1,85,86
 539 248 539 248 539 263 c 0,87,88
 539 281 539 281 551.5 294 c 128,-1,89
 564 307 564 307 582 307 c 0,90,91
 603 307 603 307 616 292 c 1,92,93
 632 348 632 348 686 348 c 0,94,95
 715 348 715 348 736 325 c 0,96,97
 744 317 744 317 744 316 c 1,98,99
 737 316 737 316 750.5 318.5 c 128,-1,100
 764 321 764 321 771 321 c 0,101,102
 792 321 792 321 809 304 c 0,103,104
 824 291 824 291 829 269 c 0,105,106
 833 268 833 268 842 265 c 0,107,108
 854 258 854 258 854 244 c 0,109,110
 854 241 854 241 850 233 c 1,111,112
 885 212 885 212 885 176 c 0,113,114
 885 166 885 166 877 148 c 1,115,116
 893 140 893 140 893 125 c 0,0,1
758 203 m 1,117,118
 751 205 751 205 733 212 c 1,119,-1
 733 165 l 1,120,121
 759 180 759 180 758 203 c 1,117,118
789 135 m 1,122,-1
 776 150 l 1,123,124
 766 143 766 143 754 134.5 c 128,-1,125
 742 126 742 126 733 116 c 1,126,127
 759 129 759 129 789 135 c 1,122,-1
685 187 m 1,128,-1
 685 211 l 1,129,130
 671 212 671 212 668 212 c 2,131,-1
 668 205 l 1,132,-1
 685 187 l 1,128,-1
650 168 m 1,133,134
 642 178 642 178 636 188 c 1,135,136
 612 183 612 183 612 173 c 1,137,138
 619 174 619 174 632 171 c 128,-1,139
 645 168 645 168 650 168 c 1,133,134
660 99 m 1,140,-1
 660 106 l 2,141,142
 660 120 660 120 648 131 c 128,-1,143
 636 142 636 142 623 142 c 0,144,145
 606 142 606 142 593 133 c 1,146,147
 623 134 623 134 660 99 c 1,140,-1
EndSplineSet
EndChar

StartChar: k
Encoding: 107 107 61
Width: 875
GlyphClass: 2
Flags: W
LayerCount: 2
Fore
SplineSet
869 321 m 0,0,1
 869 204 869 204 811.5 105 c 128,-1,2
 754 6 754 6 655 -51.5 c 128,-1,3
 556 -109 556 -109 439 -109 c 0,4,5
 261 -109 261 -109 135.5 17 c 128,-1,6
 10 143 10 143 10 321 c 128,-1,7
 10 499 10 499 135.5 624.5 c 128,-1,8
 261 750 261 750 439 750 c 128,-1,9
 617 750 617 750 743 624.5 c 128,-1,10
 869 499 869 499 869 321 c 0,0,1
838 321 m 0,11,12
 838 485 838 485 721 602 c 128,-1,13
 604 719 604 719 439 719 c 0,14,15
 275 719 275 719 158 601 c 128,-1,16
 41 483 41 483 41 321 c 0,17,18
 41 156 41 156 158 39 c 128,-1,19
 275 -78 275 -78 439 -78 c 0,20,21
 604 -78 604 -78 721 39 c 128,-1,22
 838 156 838 156 838 321 c 0,11,12
804 370 m 0,23,24
 804 340 804 340 758 295 c 0,25,26
 725 264 725 264 607.5 144 c 128,-1,27
 490 24 490 24 427 -35 c 0,28,29
 416 -45 416 -45 389 -45 c 0,30,31
 359 -45 359 -45 330 -15 c 0,32,33
 306 10 306 10 215.5 98 c 128,-1,34
 125 186 125 186 86 230 c 0,35,36
 76 240 76 240 76 268 c 0,37,38
 76 289 76 289 83 300.5 c 128,-1,39
 90 312 90 312 122 343 c 0,40,41
 144 365 144 365 212 434.5 c 128,-1,42
 280 504 280 504 339 562.5 c 128,-1,43
 398 621 398 621 453 672 c 0,44,45
 463 683 463 683 491 683 c 0,46,47
 521 683 521 683 550 653 c 0,48,49
 573 629 573 629 661.5 542 c 128,-1,50
 750 455 750 455 793 408 c 0,51,52
 804 397 804 397 804 370 c 0,23,24
710 256 m 1,53,-1
 673 520 l 1,54,-1
 612 416 l 1,55,56
 493 492 493 492 394 492 c 0,57,58
 316 492 316 492 264.5 445 c 128,-1,59
 213 398 213 398 213 313 c 0,60,61
 213 177 213 177 356 2 c 1,62,-1
 438 85 l 1,63,64
 388 140 388 140 359 201 c 128,-1,65
 330 262 330 262 330 309 c 0,66,67
 330 347 330 347 343.5 361.5 c 128,-1,68
 357 376 357 376 396 376 c 0,69,70
 472 376 472 376 530 330 c 1,71,-1
 426 256 l 1,72,-1
 710 256 l 1,53,-1
EndSplineSet
EndChar

StartChar: l
Encoding: 108 108 62
Width: 0
GlyphClass: 2
Flags: W
LayerCount: 2
Fore
SplineSet
869 321 m 0,0,1
 869 204 869 204 811.5 105 c 128,-1,2
 754 6 754 6 655 -51.5 c 128,-1,3
 556 -109 556 -109 439 -109 c 0,4,5
 261 -109 261 -109 135.5 17 c 128,-1,6
 10 143 10 143 10 321 c 128,-1,7
 10 499 10 499 135.5 624.5 c 128,-1,8
 261 750 261 750 439 750 c 128,-1,9
 617 750 617 750 743 624.5 c 128,-1,10
 869 499 869 499 869 321 c 0,0,1
838 321 m 0,11,12
 838 485 838 485 721 602 c 128,-1,13
 604 719 604 719 439 719 c 0,14,15
 275 719 275 719 158 601 c 128,-1,16
 41 483 41 483 41 321 c 0,17,18
 41 156 41 156 158 39 c 128,-1,19
 275 -78 275 -78 439 -78 c 0,20,21
 604 -78 604 -78 721 39 c 128,-1,22
 838 156 838 156 838 321 c 0,11,12
EndSplineSet
EndChar

StartChar: o
Encoding: 111 111 63
Width: 0
GlyphClass: 2
Flags: W
LayerCount: 2
Fore
SplineSet
14 321 m 0,0,1
 14 532 14 532 162 680 c 128,-1,2
 310 828 310 828 521 828 c 0,3,4
 733 828 733 828 881 680.5 c 128,-1,5
 1029 533 1029 533 1029 321 c 128,-1,6
 1029 109 1029 109 881 -39 c 128,-1,7
 733 -187 733 -187 521 -187 c 128,-1,8
 309 -187 309 -187 161.5 -39 c 128,-1,9
 14 109 14 109 14 321 c 0,0,1
EndSplineSet
EndChar

StartChar: p
Encoding: 112 112 64
Width: 983
GlyphClass: 2
Flags: W
LayerCount: 2
Fore
SplineSet
662 139 m 1,0,1
 600 96 600 96 568 87 c 1,2,3
 574 137 574 137 566 162 c 0,4,5
 563 171 563 171 575 333 c 1,6,7
 565 420 565 420 559 433 c 1,8,9
 558 448 558 448 574 500 c 1,10,11
 611 485 611 485 639 462 c 0,12,13
 701 415 701 415 703 400 c 0,14,15
 704 390 704 390 717 372 c 0,16,17
 729 355 729 355 729 344 c 0,18,19
 725 212 725 212 715 187 c 1,20,21
 699 175 699 175 662 139 c 1,0,1
410 120 m 0,22,23
 397 129 397 129 379 154 c 0,24,25
 360 180 360 180 347 189 c 1,26,27
 349 187 349 187 318 293 c 1,28,29
 328 354 328 354 329 366 c 1,30,31
 365 424 365 424 365 425 c 1,32,33
 359 416 359 416 431 489 c 0,34,35
 439 498 439 498 492 500 c 1,36,37
 488 461 488 461 493 440 c 0,38,39
 500 407 500 407 499 404 c 0,40,41
 497 392 497 392 500 363 c 0,42,43
 502 338 502 338 498 323 c 0,44,45
 497 318 497 318 501 156 c 1,46,47
 496 100 496 100 492 82 c 1,48,49
 451 91 451 91 410 120 c 0,22,23
744 457 m 0,50,51
 738 464 738 464 721 484 c 0,52,53
 707 502 707 502 697 512 c 0,54,55
 675 534 675 534 630 549 c 0,56,57
 569 569 569 569 557 575 c 1,58,59
 550 641 550 641 551 647 c 0,60,61
 554 664 554 664 551 670 c 1,62,63
 554 663 554 663 547 757 c 0,64,65
 543 792 543 792 532 799 c 1,66,67
 530 779 530 779 508 709 c 1,68,69
 496 646 496 646 494 640 c 0,70,71
 501 616 501 616 474 584 c 0,72,73
 466 579 466 579 427 566 c 0,74,75
 398 555 398 555 383 542 c 0,76,77
 358 521 358 521 323 500 c 1,78,79
 289 457 289 457 283 437 c 1,80,81
 284 438 284 438 237 319 c 1,82,83
 236 213 236 213 285 151 c 0,84,85
 299 139 299 139 321 114 c 0,86,87
 344 88 344 88 357 77 c 0,88,89
 361 74 361 74 437 35 c 0,90,91
 444 34 444 34 463 30 c 0,92,93
 480 27 480 27 489 24 c 1,94,95
 521 -142 521 -142 540 -188 c 1,96,97
 545 -174 545 -174 549 -146 c 0,98,99
 553 -116 553 -116 556 -103 c 0,100,101
 562 -82 562 -82 556 -39 c 0,102,103
 551 3 551 3 558 23 c 1,104,105
 568 33 568 33 594 35 c 0,106,107
 621 37 621 37 631 45 c 0,108,109
 719 99 719 99 746 134 c 1,110,111
 781 203 781 203 781 200 c 1,112,113
 781 213 781 213 790 253 c 0,114,115
 798 286 798 286 794 306 c 1,116,117
 795 392 795 392 744 457 c 0,50,51
EndSplineSet
EndChar

StartChar: q
Encoding: 113 113 65
Width: 875
GlyphClass: 2
Flags: W
LayerCount: 2
Fore
SplineSet
698 532 m 1,0,-1
 594 471 l 1,1,2
 670 353 670 353 670 253 c 0,3,4
 670 171 670 171 621.5 121.5 c 128,-1,5
 573 72 573 72 491 72 c 0,6,7
 354 72 354 72 180 215 c 1,8,-1
 263 297 l 1,9,10
 382 189 382 189 487 189 c 0,11,12
 525 189 525 189 539.5 203 c 128,-1,13
 554 217 554 217 554 255 c 0,14,15
 554 331 554 331 508 389 c 1,16,-1
 434 285 l 1,17,-1
 434 569 l 1,18,-1
 698 532 l 1,0,-1
EndSplineSet
EndChar

StartChar: r
Encoding: 114 114 66
Width: 0
GlyphClass: 2
Flags: W
LayerCount: 2
Fore
SplineSet
545 403 m 0,0,1
 518 338 518 338 436 338 c 0,2,3
 420 338 420 338 403 334 c 0,4,5
 377 329 377 329 377 318 c 0,6,7
 377 316 377 316 381 311.5 c 128,-1,8
 385 307 385 307 389 307 c 1,9,10
 373 307 373 307 409.5 306 c 128,-1,11
 446 305 446 305 456 305 c 1,12,13
 402 273 402 273 274 275 c 0,14,15
 233 277 233 277 203 313 c 0,16,17
 173 347 173 347 173 390 c 0,18,19
 173 434 173 434 203.5 466 c 128,-1,20
 234 498 234 498 278 498 c 0,21,22
 289 498 289 498 305 493.5 c 128,-1,23
 321 489 321 489 328 489 c 0,24,25
 350 489 350 489 384.5 507.5 c 128,-1,26
 419 526 419 526 417 526 c 0,27,28
 411 461 411 461 373 439 c 0,29,30
 346 424 346 424 346 408 c 0,31,32
 346 399 346 399 358 394 c 0,33,34
 367 388 367 388 377 388 c 0,35,36
 394 388 394 388 409.5 408.5 c 128,-1,37
 425 429 425 429 423 444 c 0,38,39
 421 464 421 464 425 490 c 0,40,41
 427 498 427 498 434.5 509 c 128,-1,42
 442 520 442 520 449 521 c 1,43,44
 449 516 449 516 445 503 c 128,-1,45
 441 490 441 490 441 483 c 0,46,47
 441 470 441 470 447 463 c 1,48,49
 459 466 459 466 468 490 c 0,50,51
 475 508 475 508 476 525 c 1,52,53
 450 526 450 526 426 549 c 128,-1,54
 402 572 402 572 402 598 c 0,55,56
 402 602 402 602 403 607 c 1,57,58
 407 600 407 600 415 589 c 0,59,60
 425 573 425 573 430 573 c 0,61,62
 438 573 438 573 438 589 c 0,63,64
 438 609 438 609 428 625 c 0,65,66
 416 645 416 645 397 645 c 0,67,68
 389 645 389 645 371.5 635.5 c 128,-1,69
 354 626 354 626 339 626 c 0,70,71
 334 626 334 626 300 637 c 1,72,73
 362 647 362 647 362 655 c 0,74,75
 362 677 362 677 278 684 c 0,76,77
 269 685 269 685 248 686 c 1,78,79
 251 690 251 690 284 694 c 0,80,81
 312 697 312 697 323 697 c 0,82,83
 472 697 472 697 511 552 c 1,84,85
 519 557 519 557 519 570 c 0,86,87
 519 587 519 587 508 613 c 0,88,89
 505 624 505 624 497 643 c 1,90,91
 547 578 547 578 547 521 c 0,92,93
 547 490 547 490 533 465 c 0,94,95
 524 448 524 448 498 421.5 c 128,-1,96
 472 395 472 395 463 381 c 1,97,98
 498 391 498 391 508 395 c 0,99,100
 532 407 532 407 551 427 c 1,101,102
 551 420 551 420 545 403 c 0,0,1
381 591 m 0,103,104
 381 581 381 581 369.5 574 c 128,-1,105
 358 567 358 567 346 567 c 0,106,107
 332 567 332 567 320 583 c 0,108,109
 306 603 306 603 290 609 c 1,110,111
 294 613 294 613 298 613 c 0,112,113
 303 613 303 613 316.5 604 c 128,-1,114
 330 595 330 595 334 595 c 0,115,116
 337 595 337 595 344 604 c 128,-1,117
 351 613 351 613 360 613 c 0,118,119
 381 613 381 613 381 591 c 0,103,104
272 648 m 0,120,121
 272 637 272 637 260 634 c 2,122,-1
 243 632 l 2,123,124
 235 628 235 628 219 598 c 1,125,126
 216 607 216 607 212 624 c 1,127,128
 207 622 207 622 194 613 c 0,129,130
 189 609 189 609 176 600 c 1,131,132
 180 622 180 622 200 646 c 0,133,134
 222 672 222 672 245 672 c 0,135,136
 272 672 272 672 272 648 c 0,120,121
EndSplineSet
EndChar

StartChar: s
Encoding: 115 115 67
Width: 1044
GlyphClass: 2
Flags: W
LayerCount: 2
Fore
SplineSet
920 57 m 0,0,1
 893 -6 893 -6 811 -6 c 0,2,3
 796 -6 796 -6 779 -10 c 0,4,5
 753 -16 753 -16 753 -25 c 0,6,7
 753 -28 753 -28 757 -33 c 128,-1,8
 761 -38 761 -38 764 -38 c 1,9,10
 749 -38 749 -38 785.5 -38.5 c 128,-1,11
 822 -39 822 -39 832 -39 c 1,12,13
 777 -71 777 -71 650 -68 c 0,14,15
 608 -67 608 -67 578 -31 c 0,16,17
 549 2 549 2 549 44 c 0,18,19
 549 89 549 89 579.5 120.5 c 128,-1,20
 610 152 610 152 654 152 c 0,21,22
 664 152 664 152 680.5 148 c 128,-1,23
 697 144 697 144 703 144 c 0,24,25
 725 144 725 144 759.5 162.5 c 128,-1,26
 794 181 794 181 793 181 c 0,27,28
 787 116 787 116 749 94 c 0,29,30
 723 78 723 78 723 63 c 0,31,32
 723 54 723 54 733 48 c 0,33,34
 742 43 742 43 753 43 c 0,35,36
 770 43 770 43 785.5 63 c 128,-1,37
 801 83 801 83 798 99 c 0,38,39
 797 119 797 119 801 146 c 0,40,41
 802 152 802 152 810 163 c 128,-1,42
 818 174 818 174 824 177 c 1,43,44
 824 171 824 171 820 158.5 c 128,-1,45
 816 146 816 146 816 138 c 0,46,47
 816 125 816 125 823 117 c 1,48,49
 835 122 835 122 844 146 c 0,50,51
 850 164 850 164 852 180 c 1,52,53
 826 181 826 181 801.5 204 c 128,-1,54
 777 227 777 227 777 252 c 0,55,56
 777 256 777 256 779 262 c 1,57,58
 783 255 783 255 790 243 c 0,59,60
 801 229 801 229 806 229 c 0,61,62
 814 229 814 229 814 243 c 0,63,64
 814 264 814 264 803 280 c 0,65,66
 792 299 792 299 772 299 c 0,67,68
 764 299 764 299 746.5 290 c 128,-1,69
 729 281 729 281 715 281 c 0,70,71
 710 281 710 281 676 292 c 1,72,73
 737 302 737 302 737 311 c 0,74,75
 737 333 737 333 654 338 c 0,76,77
 645 340 645 340 624 341 c 1,78,79
 627 345 627 345 659 349 c 0,80,81
 688 352 688 352 698 352 c 0,82,83
 848 352 848 352 887 208 c 1,84,85
 894 212 894 212 894 226 c 0,86,87
 894 242 894 242 884 269 c 0,88,89
 880 278 880 278 872 298 c 1,90,91
 923 233 923 233 923 176 c 0,92,93
 923 146 923 146 909 120 c 0,94,95
 900 104 900 104 874.5 77.5 c 128,-1,96
 849 51 849 51 839 35 c 1,97,98
 874 46 874 46 884 51 c 0,99,100
 907 62 907 62 927 83 c 1,101,102
 927 74 927 74 920 57 c 0,0,1
757 247 m 0,103,104
 757 236 757 236 745 228.5 c 128,-1,105
 733 221 733 221 723 221 c 0,106,107
 707 221 707 221 696 238 c 0,108,109
 681 258 681 258 666 264 c 1,110,111
 669 269 669 269 673 269 c 0,112,113
 679 269 679 269 692.5 259.5 c 128,-1,114
 706 250 706 250 710 250 c 0,115,116
 712 250 712 250 719.5 259.5 c 128,-1,117
 727 269 727 269 736 269 c 0,118,119
 757 269 757 269 757 247 c 0,103,104
647 303 m 0,120,121
 647 292 647 292 636 290 c 2,122,-1
 619 286 l 2,123,124
 611 282 611 282 594 252 c 1,125,126
 591 262 591 262 588 278 c 1,127,128
 582 277 582 277 569 269 c 0,129,130
 564 264 564 264 551 255 c 1,131,132
 555 277 555 277 576 301 c 0,133,134
 598 327 598 327 620 327 c 0,135,136
 647 327 647 327 647 303 c 0,120,121
EndSplineSet
EndChar

StartChar: t
Encoding: 116 116 68
Width: 875
GlyphClass: 2
Flags: W
LayerCount: 2
Fore
SplineSet
869 321 m 0,0,1
 869 204 869 204 811.5 105 c 128,-1,2
 754 6 754 6 655 -51.5 c 128,-1,3
 556 -109 556 -109 439 -109 c 0,4,5
 261 -109 261 -109 135.5 17 c 128,-1,6
 10 143 10 143 10 321 c 128,-1,7
 10 499 10 499 135.5 624.5 c 128,-1,8
 261 750 261 750 439 750 c 128,-1,9
 617 750 617 750 743 624.5 c 128,-1,10
 869 499 869 499 869 321 c 0,0,1
710 256 m 1,11,-1
 673 520 l 1,12,-1
 612 416 l 1,13,14
 493 492 493 492 394 492 c 0,15,16
 316 492 316 492 264.5 445 c 128,-1,17
 213 398 213 398 213 313 c 0,18,19
 213 177 213 177 356 2 c 1,20,-1
 438 85 l 1,21,22
 388 140 388 140 359 201 c 128,-1,23
 330 262 330 262 330 309 c 0,24,25
 330 347 330 347 343.5 361.5 c 128,-1,26
 357 376 357 376 396 376 c 0,27,28
 472 376 472 376 530 330 c 1,29,-1
 426 256 l 1,30,-1
 710 256 l 1,11,-1
EndSplineSet
EndChar

StartChar: u
Encoding: 117 117 69
Width: 0
GlyphClass: 2
Flags: W
LayerCount: 2
Fore
SplineSet
452 413 m 0,0,1
 452 454 452 454 425 494 c 0,2,3
 407 519 407 519 373 567 c 0,4,5
 346 608 346 608 346 651 c 0,6,7
 346 671 346 671 356 715 c 1,8,9
 289 660 289 660 239 586 c 0,10,11
 178 497 178 497 178 428 c 0,12,13
 178 361 178 361 213 320 c 0,14,15
 252 276 252 276 316 276 c 0,16,17
 373 276 373 276 412.5 316 c 128,-1,18
 452 356 452 356 452 413 c 0,0,1
423 424 m 0,19,20
 423 390 423 390 396 390 c 0,21,22
 372 390 372 390 372 415 c 1,23,-1
 381 442 l 2,24,25
 390 469 390 469 390 485 c 0,26,27
 390 493 390 493 387 497 c 1,28,29
 402 489 402 489 412.5 465.5 c 128,-1,30
 423 442 423 442 423 424 c 0,19,20
EndSplineSet
EndChar

StartChar: v
Encoding: 118 118 70
Width: 1045
GlyphClass: 2
Flags: W
LayerCount: 2
Fore
SplineSet
800 75 m 0,0,1
 800 114 800 114 773 156 c 0,2,3
 756 179 756 179 722 229 c 0,4,5
 695 270 695 270 695 313 c 0,6,7
 695 333 695 333 704 376 c 1,8,9
 638 321 638 321 587 248 c 0,10,11
 527 158 527 158 527 88 c 0,12,13
 527 22 527 22 562 -18 c 0,14,15
 600 -62 600 -62 665 -62 c 0,16,17
 722 -62 722 -62 761 -22.5 c 128,-1,18
 800 17 800 17 800 75 c 0,0,1
771 86 m 0,19,20
 771 52 771 52 745 52 c 0,21,22
 721 52 721 52 721 75 c 1,23,-1
 730 104 l 2,24,25
 738 131 738 131 738 145 c 0,26,27
 738 153 738 153 736 157 c 1,28,29
 749 151 749 151 760 127 c 128,-1,30
 771 103 771 103 771 86 c 0,19,20
EndSplineSet
EndChar

StartChar: w
Encoding: 119 119 71
Width: 0
GlyphClass: 2
Flags: W
LayerCount: 2
Fore
SplineSet
589 470 m 1,0,1
 544 496 544 496 531 496 c 0,2,3
 521 496 521 496 515.5 481 c 128,-1,4
 510 466 510 466 495 466 c 0,5,6
 488 466 488 466 467 471 c 1,7,8
 456 454 456 454 456 449 c 0,9,10
 456 443 456 443 465.5 433.5 c 128,-1,11
 475 424 475 424 482 424 c 0,12,13
 485 424 485 424 492.5 426 c 128,-1,14
 500 428 500 428 502 428 c 0,15,16
 510 428 510 428 510 402 c 128,-1,17
 510 376 510 376 497 323 c 1,18,19
 483 384 483 384 465 384 c 0,20,21
 462 384 462 384 455 380 c 128,-1,22
 448 376 448 376 444 376 c 0,23,24
 427 376 427 376 414 409 c 1,25,26
 387 404 387 404 387 380 c 0,27,28
 387 368 387 368 398 361 c 128,-1,29
 409 354 409 354 409 352 c 0,30,31
 409 335 409 335 362 302 c 0,32,33
 337 284 337 284 328 278 c 1,34,35
 336 288 336 288 345 305 c 0,36,37
 354 324 354 324 354 335 c 0,38,39
 354 341 354 341 340 351.5 c 128,-1,40
 326 362 326 362 326 375 c 0,41,42
 326 384 326 384 332 400 c 1,43,44
 326 409 326 409 314 409 c 0,45,46
 290 409 290 409 290 393 c 1,47,-1
 290 393 l 1,48,49
 290 404 290 404 292 376 c 0,50,51
 292 357 292 357 262 357 c 0,52,53
 238 357 238 357 184 368 c 1,54,55
 246 383 246 383 246 404 c 1,56,-1
 246 404 l 1,57,58
 246 401 246 401 244 418 c 0,59,60
 241 436 241 436 270 450 c 1,61,62
 264 478 264 478 241 478 c 0,63,64
 237 478 237 478 228 465.5 c 128,-1,65
 219 453 219 453 210 453 c 0,66,67
 196 453 196 453 173 484 c 0,68,69
 163 500 163 500 141 530 c 1,70,71
 155 523 155 523 168 515 c 0,72,73
 186 508 186 508 197 508 c 0,74,75
 205 508 205 508 213.5 522 c 128,-1,76
 222 536 222 536 235 536 c 0,77,78
 236 536 236 536 258 530 c 1,79,80
 270 547 270 547 270 554 c 0,81,82
 270 562 270 562 260.5 571 c 128,-1,83
 251 580 251 580 245 580 c 0,84,85
 242 580 242 580 235.5 578 c 128,-1,86
 229 576 229 576 227 576 c 0,87,88
 216 576 216 576 216 604 c 0,89,90
 216 610 216 610 229 684 c 1,91,92
 229 677 229 677 237 652 c 0,93,94
 248 622 248 622 261 622 c 0,95,96
 263 622 263 622 270 625 c 128,-1,97
 277 628 277 628 281 628 c 0,98,99
 296 628 296 628 305 614 c 2,100,-1
 313 597 l 1,101,102
 326 597 326 597 334 606 c 128,-1,103
 342 615 342 615 342 628 c 128,-1,104
 342 641 342 641 331 647.5 c 128,-1,105
 320 654 320 654 320 658 c 0,106,107
 320 670 320 670 359 700 c 0,108,109
 391 725 391 725 401 729 c 1,110,111
 375 693 375 693 375 678 c 1,112,-1
 375 678 l 1,113,114
 375 669 375 669 385 660 c 0,115,116
 397 649 397 649 400 644 c 0,117,118
 405 630 405 630 398 606 c 1,119,120
 414 595 414 595 422 595 c 0,121,122
 440 595 440 595 440 613 c 0,123,124
 440 614 440 614 438 624 c 128,-1,125
 436 634 436 634 437 635 c 0,126,127
 440 643 440 643 470 643 c 0,128,129
 489 643 489 643 549 632 c 1,130,131
 536 628 536 628 510 622 c 0,132,133
 485 614 485 614 485 606 c 0,134,135
 485 601 485 601 488.5 591.5 c 128,-1,136
 492 582 492 582 492 576 c 0,137,138
 492 569 492 569 482 561 c 2,139,-1
 461 547 l 1,140,141
 469 534 469 534 470 532 c 0,142,143
 476 524 476 524 487 524 c 0,144,145
 493 524 493 524 499 536.5 c 128,-1,146
 505 549 505 549 518 549 c 0,147,148
 535 549 535 549 554 519 c 0,149,150
 566 504 566 504 589 470 c 1,0,1
458 504 m 0,151,152
 458 541 458 541 430 569 c 128,-1,153
 402 597 402 597 365 597 c 0,154,155
 326 597 326 597 298 570 c 128,-1,156
 270 543 270 543 270 504 c 0,157,158
 268 466 268 466 297 438 c 128,-1,159
 326 410 326 410 365 410 c 0,160,161
 405 410 405 410 431.5 436.5 c 128,-1,162
 458 463 458 463 458 504 c 0,151,152
449 504 m 0,163,164
 449 467 449 467 425 443.5 c 128,-1,165
 401 420 401 420 365 420 c 128,-1,166
 329 420 329 420 304 444.5 c 128,-1,167
 279 469 279 469 279 504 c 128,-1,168
 279 539 279 539 304 563 c 128,-1,169
 329 587 329 587 365 587 c 0,170,171
 398 587 398 587 423.5 562 c 128,-1,172
 449 537 449 537 449 504 c 0,163,164
EndSplineSet
EndChar

StartChar: x
Encoding: 120 120 72
Width: 1045
GlyphClass: 2
Flags: W
LayerCount: 2
Fore
SplineSet
916 105 m 1,0,1
 871 131 871 131 858 131 c 0,2,3
 848 131 848 131 842.5 116.5 c 128,-1,4
 837 102 837 102 821 102 c 0,5,6
 815 102 815 102 795 108 c 1,7,8
 783 91 783 91 783 85 c 128,-1,9
 783 79 783 79 793 70.5 c 128,-1,10
 803 62 803 62 809 62 c 0,11,12
 813 62 813 62 820.5 63.5 c 128,-1,13
 828 65 828 65 830 65 c 0,14,15
 837 65 837 65 837 39 c 0,16,17
 837 14 837 14 825 -38 c 1,18,19
 809 22 809 22 793 22 c 0,20,21
 790 22 790 22 783 18 c 128,-1,22
 776 14 776 14 772 14 c 0,23,24
 755 14 755 14 742 45 c 1,25,26
 715 41 715 41 715 18 c 0,27,28
 715 6 715 6 726.5 -1 c 128,-1,29
 738 -8 738 -8 738 -10 c 0,30,31
 738 -26 738 -26 691 -60 c 0,32,33
 666 -77 666 -77 657 -85 c 1,34,35
 665 -74 665 -74 674 -56 c 128,-1,36
 683 -38 683 -38 683 -26 c 0,37,38
 683 -21 683 -21 669 -10.5 c 128,-1,39
 655 0 655 0 655 11 c 128,-1,40
 655 22 655 22 663 36 c 1,41,42
 655 45 655 45 644 45 c 0,43,44
 621 45 621 45 621 29 c 1,45,-1
 621 29 l 1,46,47
 621 40 621 40 622 14 c 0,48,49
 622 -5 622 -5 592 -5 c 0,50,51
 569 -5 569 -5 516 5 c 1,52,53
 577 20 577 20 577 40 c 1,54,-1
 577 40 l 1,55,56
 577 39 577 39 574 54 c 0,57,58
 572 72 572 72 600 87 c 1,59,60
 595 114 595 114 572 114 c 0,61,62
 569 114 569 114 559.5 101.5 c 128,-1,63
 550 89 550 89 542 89 c 0,64,65
 527 89 527 89 505 121 c 0,66,67
 495 135 495 135 473 165 c 1,68,69
 486 158 486 158 500 152 c 0,70,71
 517 143 517 143 527 143 c 128,-1,72
 537 143 537 143 544.5 157 c 128,-1,73
 552 171 552 171 565 171 c 0,74,75
 566 171 566 171 589 165 c 1,76,77
 599 182 599 182 599 189 c 0,78,79
 599 197 599 197 590.5 206 c 128,-1,80
 582 215 582 215 576 215 c 0,81,82
 573 215 573 215 566.5 213.5 c 128,-1,83
 560 212 560 212 557 212 c 0,84,85
 547 212 547 212 547 238 c 0,86,87
 547 245 547 245 560 318 c 1,88,89
 560 309 560 309 568 286 c 0,90,91
 578 256 578 256 591 256 c 0,92,93
 594 256 594 256 601 260 c 128,-1,94
 608 264 608 264 612 264 c 0,95,96
 625 264 625 264 634 248 c 2,97,-1
 643 232 l 1,98,99
 655 232 655 232 663.5 240.5 c 128,-1,100
 672 249 672 249 672 262 c 128,-1,101
 672 275 672 275 661 281.5 c 128,-1,102
 650 288 650 288 650 292 c 0,103,104
 650 304 650 304 689 334 c 0,105,106
 720 357 720 357 729 361 c 1,107,108
 704 327 704 327 704 312 c 1,109,-1
 704 312 l 1,110,111
 704 303 704 303 713 294 c 0,112,113
 726 283 726 283 728 278 c 0,114,115
 734 265 734 265 726 242 c 1,116,117
 742 230 742 230 751 230 c 0,118,119
 768 230 768 230 768 248 c 0,120,121
 768 249 768 249 766.5 258.5 c 128,-1,122
 765 268 765 268 765 269 c 0,123,124
 768 278 768 278 798 278 c 0,125,126
 816 278 816 278 876 266 c 1,127,128
 863 264 863 264 837 256 c 0,129,130
 813 249 813 249 813 240 c 0,131,132
 813 236 813 236 816.5 226.5 c 128,-1,133
 820 217 820 217 820 212 c 0,134,135
 820 204 820 204 808 196 c 2,136,-1
 789 183 l 1,137,138
 795 170 795 170 798 167 c 0,139,140
 804 160 804 160 813 160 c 0,141,142
 821 160 821 160 827 172 c 128,-1,143
 833 184 833 184 846 184 c 0,144,145
 861 184 861 184 881 156 c 0,146,147
 893 139 893 139 916 105 c 1,0,1
786 140 m 0,148,149
 786 176 786 176 758 204 c 128,-1,150
 730 232 730 232 694 232 c 0,151,152
 655 232 655 232 627.5 205 c 128,-1,153
 600 178 600 178 599 140 c 0,154,155
 599 102 599 102 627.5 75 c 128,-1,156
 656 48 656 48 694 48 c 0,157,158
 733 48 733 48 759.5 74 c 128,-1,159
 786 100 786 100 786 140 c 0,148,149
777 140 m 0,160,161
 777 104 777 104 753 80.5 c 128,-1,162
 729 57 729 57 694 57 c 128,-1,163
 659 57 659 57 634 81 c 128,-1,164
 609 105 609 105 609 140 c 0,165,166
 609 174 609 174 634 198 c 128,-1,167
 659 222 659 222 694 222 c 0,168,169
 728 222 728 222 752.5 197.5 c 128,-1,170
 777 173 777 173 777 140 c 0,160,161
EndSplineSet
EndChar

StartChar: asciitilde
Encoding: 126 126 73
Width: 875
GlyphClass: 2
Flags: W
LayerCount: 2
Fore
SplineSet
755 341 m 0,0,1
 755 228 755 228 703 147 c 128,-1,2
 651 66 651 66 572 66 c 0,3,4
 494 66 494 66 442.5 138.5 c 128,-1,5
 391 211 391 211 391 314 c 0,6,7
 391 427 391 427 443.5 509.5 c 128,-1,8
 496 592 496 592 574 592 c 0,9,10
 654 592 654 592 704.5 519.5 c 128,-1,11
 755 447 755 447 755 341 c 0,0,1
395 68 m 1,12,-1
 165 68 l 1,13,-1
 165 116 l 1,14,-1
 189 116 l 2,15,16
 215 116 215 116 226 129 c 128,-1,17
 237 142 237 142 237 176 c 2,18,-1
 237 434 l 2,19,20
 237 469 237 469 228 482 c 128,-1,21
 219 495 219 495 198 495 c 2,22,-1
 167 495 l 1,23,-1
 167 542 l 1,24,-1
 185 542 l 2,25,26
 244 542 244 542 292 580 c 1,27,-1
 327 580 l 1,28,-1
 327 176 l 2,29,30
 327 116 327 116 375 116 c 2,31,-1
 395 116 l 1,32,-1
 395 68 l 1,12,-1
657 303 m 0,33,34
 657 418 657 418 632 476 c 128,-1,35
 607 534 607 534 567 534 c 128,-1,36
 527 534 527 534 507 486 c 0,37,38
 489 442 489 442 489 358 c 0,39,40
 489 222 489 222 523 160 c 0,41,42
 545 120 545 120 576 120 c 0,43,44
 657 120 657 120 657 303 c 0,33,34
EndSplineSet
EndChar

StartChar: exclamdown
Encoding: 161 161 75
Width: 875
GlyphClass: 2
Flags: W
LayerCount: 2
Fore
SplineSet
317 23 m 0,1,2
 204 33 204 33 108 66 c 0,3,4
 13 98 13 98 13 142 c 0,5,6
 13 165 13 165 37 195 c 0,7,8
 47 208 47 208 74 236 c 0,9,10
 129 294 129 294 162 360 c 0,11,12
 192 420 192 420 218 506 c 0,13,14
 261 651 261 651 289 675 c 0,15,16
 299 684 299 684 308 684 c 0,17,18
 318 684 318 684 327 675 c 0,19,20
 347 657 347 657 379 579 c 0,21,22
 416 486 416 486 456 426 c 0,23,24
 468 409 468 409 492 384 c 0,25,26
 516 360 516 360 522 360 c 0,27,28
 535 360 535 360 567 413 c 0,29,30
 595 458 595 458 613 466 c 0,31,32
 624 471 624 471 634 471 c 0,33,34
 653 471 653 471 671 454 c 0,35,36
 686 438 686 438 712 369 c 0,37,38
 751 266 751 266 812 214 c 0,39,40
 838 191 838 191 847 181 c 0,41,42
 863 160 863 160 863 142 c 0,43,44
 863 118 863 118 834 97 c 0,45,46
 809 80 809 80 768 66 c 0,47,48
 679 35 679 35 563 23 c 0,49,50
 496 16 496 16 438 16 c 0,51,52
 400 16 400 16 367 19 c 0,53,0
 347 21 347 21 317 23 c 0,1,2
EndSplineSet
EndChar

StartChar: cent
Encoding: 162 162 76
Width: 875
GlyphClass: 2
Flags: W
LayerCount: 2
Fore
SplineSet
429 -58 m 2,1,-1
 429 -56 l 2,2,3
 429 -42 429 -42 463 -34 c 0,4,5
 496 -27 496 -27 496 -14 c 0,6,7
 496 3 496 3 464 16 c 0,8,9
 447 22 447 22 420 22 c 256,10,11
 393 22 393 22 362 12 c 0,12,13
 321 -2 321 -2 291 -2 c 0,14,15
 282 -2 282 -2 275 -1 c 0,16,17
 208 9 208 9 156 63 c 0,18,19
 114 106 114 106 105 162 c 0,20,21
 102 178 102 178 102 194 c 0,22,23
 102 234 102 234 120 270 c 0,24,25
 139 308 139 308 176 325 c 0,26,27
 196 334 196 334 209 334 c 0,28,29
 220 334 220 334 226 328 c 0,30,31
 228 326 228 326 228 324 c 256,32,33
 228 322 228 322 227 321 c 0,34,35
 225 319 225 319 207 307 c 0,36,37
 187 294 187 294 182 266 c 0,38,39
 180 256 180 256 180 246 c 0,40,41
 180 181 180 181 263 150 c 0,42,43
 301 135 301 135 384 135 c 0,44,45
 454 135 454 135 487 119 c 0,46,47
 540 93 540 93 554 43 c 0,48,49
 559 28 559 28 566 28 c 0,50,51
 570 28 570 28 576 35 c 0,52,53
 590 52 590 52 590 78 c 0,54,55
 590 88 590 88 588 100 c 0,56,57
 579 141 579 141 548 172 c 0,58,59
 507 212 507 212 428 220 c 0,60,61
 368 226 368 226 345 246 c 0,62,63
 321 267 321 267 321 282 c 2,64,-1
 321 286 l 2,65,66
 322 291 322 291 331 291 c 0,67,68
 339 291 339 291 352 288 c 0,69,70
 359 286 359 286 365 286 c 0,71,72
 373 286 373 286 379 289 c 0,73,74
 400 299 400 299 400 334 c 0,75,76
 400 365 400 365 373 390 c 0,77,78
 347 415 347 415 281 436 c 0,79,80
 242 448 242 448 225 457 c 0,81,82
 184 479 184 479 162 520 c 0,83,84
 139 563 139 563 139 607 c 0,85,86
 139 648 139 648 159 689 c 0,87,88
 182 735 182 735 230 758 c 0,89,90
 267 775 267 775 315 775 c 0,91,92
 368 775 368 775 388 758 c 0,93,94
 396 751 396 751 396 749 c 0,95,96
 396 748 396 748 395 747 c 0,97,98
 392 745 392 745 378 745 c 2,99,-1
 358 745 l 2,100,101
 279 745 279 745 256 692 c 0,102,103
 252 684 252 684 252 667 c 2,104,-1
 252 660 l 2,105,106
 252 638 252 638 261 619 c 0,107,108
 276 589 276 589 339 556 c 0,109,110
 398 526 398 526 446 480 c 0,111,112
 495 432 495 432 522 432 c 0,113,114
 557 432 557 432 571 460 c 0,115,116
 578 473 578 473 578 488 c 0,117,118
 578 505 578 505 569 525 c 0,119,120
 557 553 557 553 532 566 c 0,121,122
 524 570 524 570 492 581 c 0,123,124
 448 597 448 597 448 607 c 0,125,126
 448 618 448 618 473 618 c 0,127,128
 482 618 482 618 496 616 c 0,129,130
 545 609 545 609 581 589 c 0,131,132
 761 487 761 487 773 268 c 0,133,134
 774 254 774 254 774 241 c 0,135,136
 774 161 774 161 744 94 c 0,137,138
 713 21 713 21 649 -25 c 0,139,140
 587 -71 587 -71 491 -74 c 0,141,142
 479 -75 479 -75 470 -75 c 0,143,144
 446 -75 446 -75 440 -71 c 0,145,0
 430 -65 430 -65 429 -58 c 2,1,-1
EndSplineSet
EndChar

StartChar: sterling
Encoding: 163 163 77
Width: 875
GlyphClass: 2
Flags: W
LayerCount: 2
Fore
SplineSet
285 7 m 0,1,2
 283 13 283 13 283 20 c 0,3,4
 283 38 283 38 294 60 c 0,5,6
 307 90 307 90 365 129 c 0,7,8
 404 156 404 156 429 176 c 0,9,10
 491 225 491 225 579 274 c 0,11,12
 622 297 622 297 650 314 c 0,13,14
 793 402 793 402 853 402 c 0,15,16
 860 402 860 402 862 399 c 0,17,18
 863 398 863 398 863 397 c 0,19,20
 863 384 863 384 788 344 c 0,21,22
 667 278 667 278 557 191 c 0,23,24
 479 130 479 130 399 23 c 0,25,26
 371 -14 371 -14 351 -24 c 0,27,28
 340 -30 340 -30 329 -30 c 0,29,30
 320 -30 320 -30 312 -25 c 0,31,0
 289 -11 289 -11 285 7 c 0,1,2
115 37 m 0,32,33
 104 49 104 49 104 74 c 0,34,35
 104 88 104 88 107 105 c 0,36,37
 111 129 111 129 111 146 c 0,38,39
 111 154 111 154 110 161 c 0,40,41
 105 187 105 187 98 196 c 0,42,43
 90 205 90 205 59 220 c 0,44,45
 26 237 26 237 18 245 c 0,46,47
 12 252 12 252 12 268 c 2,48,-1
 12 273 l 1,49,50
 16 321 16 321 85 402 c 0,51,52
 187 521 187 521 251 565 c 0,53,54
 275 581 275 581 318 596 c 0,55,56
 341 604 341 604 387 628 c 0,57,58
 483 677 483 677 538 698 c 0,59,60
 622 730 622 730 651 730 c 0,61,62
 662 730 662 730 665 726 c 0,63,64
 666 725 666 725 666 723 c 0,65,66
 666 713 666 713 614 693 c 0,67,68
 518 654 518 654 446 594 c 0,69,70
 406 560 406 560 355 521 c 0,71,72
 255 447 255 447 184 341 c 0,73,74
 167 315 167 315 166 304 c 2,75,-1
 166 300 l 2,76,77
 166 289 166 289 174 273 c 0,78,79
 183 256 183 256 183 244 c 2,80,-1
 183 233 l 1,81,-1
 191 237 l 2,82,83
 200 242 200 242 258 295 c 0,84,85
 453 475 453 475 609 543 c 0,86,87
 777 617 777 617 830 626 c 0,88,89
 842 628 842 628 849 628 c 256,90,91
 856 628 856 628 859 626 c 0,92,93
 861 625 861 625 861 623 c 0,94,95
 861 618 861 618 851 610 c 0,96,97
 841 603 841 603 770 566 c 0,98,99
 698 529 698 529 666 509 c 0,100,101
 568 447 568 447 492 369 c 0,102,103
 445 320 445 320 349 236 c 0,104,105
 252 151 252 151 192 80 c 0,106,107
 159 41 159 41 144 32 c 0,108,109
 138 29 138 29 133 29 c 0,110,111
 124 29 124 29 115 37 c 0,32,33
EndSplineSet
EndChar

StartChar: section
Encoding: 167 167 78
Width: 875
GlyphClass: 2
Flags: W
LayerCount: 2
Fore
SplineSet
197 27 m 0,1,2
 168 32 168 32 105 47 c 0,3,4
 43 62 43 62 31 63 c 0,5,6
 21 65 21 65 16 69 c 0,7,8
 14 71 14 71 14 73 c 0,9,10
 14 74 14 74 16 76 c 0,11,12
 19 77 19 77 36 81 c 0,13,14
 168 110 168 110 201 124 c 0,15,16
 215 130 215 130 215 141 c 0,17,18
 215 144 215 144 214 148 c 0,19,20
 209 159 209 159 141 217 c 0,21,22
 18 320 18 320 15 327 c 0,23,24
 13 329 13 329 13 330 c 0,25,26
 13 334 13 334 17 334 c 256,27,28
 21 334 21 334 29 330 c 0,29,30
 51 323 51 323 140 288 c 0,31,32
 253 241 253 241 263 241 c 2,33,-1
 265 241 l 2,34,35
 278 241 278 241 279 257 c 0,36,37
 279 266 279 266 199 462 c 0,38,39
 176 516 176 516 172 533 c 0,40,41
 169 540 169 540 169 544 c 0,42,43
 169 549 169 549 173 549 c 0,44,45
 178 549 178 549 268 429 c 0,46,47
 360 308 360 308 368 303 c 0,48,49
 372 300 372 300 377 300 c 0,50,51
 386 300 386 300 390 316 c 0,52,53
 393 327 393 327 411 497 c 0,54,55
 429 668 429 668 432 675 c 0,56,57
 434 682 434 682 437 682 c 256,58,59
 440 682 440 682 443 674 c 0,60,61
 447 666 447 666 465 495 c 0,62,63
 483 323 483 323 486 313 c 0,64,65
 490 299 490 299 499 299 c 0,66,67
 503 299 503 299 508 303 c 0,68,69
 516 309 516 309 595 414 c 0,70,71
 697 549 697 549 702 549 c 0,72,73
 706 549 706 549 706 544 c 2,74,-1
 706 540 l 2,75,76
 704 530 704 530 651 398 c 0,77,78
 597 266 597 266 597 258 c 0,79,80
 597 241 597 241 611 241 c 2,81,-1
 612 241 l 2,82,83
 622 241 622 241 736 288 c 0,84,85
 849 334 849 334 856 334 c 0,86,87
 862 334 862 334 862 331 c 0,88,89
 862 329 862 329 859 326 c 0,90,91
 852 317 852 317 807 279 c 0,92,93
 758 238 758 238 715 202 c 0,94,95
 660 154 660 154 660 140 c 0,96,97
 660 138 660 138 661 138 c 0,98,99
 667 125 667 125 766 100 c 0,100,101
 858 77 858 77 861 73 c 0,102,103
 863 72 863 72 863 71 c 0,104,105
 863 66 863 66 844 63 c 0,106,107
 832 62 832 62 770 47 c 0,108,109
 663 22 663 22 629 19 c 2,110,-1
 621 19 l 2,111,112
 609 19 609 19 606 22 c 0,113,114
 604 25 604 25 604 32 c 0,115,116
 604 40 604 40 606 52 c 0,117,118
 608 65 608 65 608 77 c 0,119,120
 608 124 608 124 583 165 c 0,121,122
 552 216 552 216 494 237 c 0,123,124
 475 244 475 244 438 244 c 0,125,126
 381 244 381 244 341 216 c 0,127,128
 267 164 267 164 267 80 c 0,129,130
 267 67 267 67 269 52 c 0,131,132
 271 39 271 39 271 31 c 0,133,134
 271 26 271 26 270 23 c 0,135,136
 267 18 267 18 252 18 c 0,137,138
 238 19 238 19 233 20 c 0,139,0
 226 21 226 21 197 27 c 0,1,2
EndSplineSet
EndChar

StartChar: ordfeminine
Encoding: 170 170 79
Width: 875
GlyphClass: 2
Flags: W
LayerCount: 2
Fore
SplineSet
424 -47 m 0,1,2
 415 68 415 68 369 182 c 0,3,4
 331 276 331 276 238 330 c 0,5,6
 226 336 226 336 225 337 c 2,7,-1
 225 339 l 2,8,9
 225 352 225 352 231 470 c 0,10,11
 236 570 236 570 245 578 c 1,12,-1
 246 578 l 2,13,14
 249 578 249 578 252 550 c 0,15,16
 260 484 260 484 266 456 c 0,17,18
 278 386 278 386 281 383 c 2,19,-1
 297 389 l 2,20,21
 313 395 313 395 314 397 c 0,22,23
 320 432 320 432 328 581 c 0,24,25
 331 647 331 647 334 669 c 0,26,27
 337 692 337 692 342 692 c 0,28,29
 351 692 351 692 357 556 c 0,30,31
 359 504 359 504 364 465 c 0,32,33
 371 415 371 415 374 410 c 0,34,35
 375 409 375 409 377 409 c 0,36,37
 381 409 381 409 386 410 c 0,38,39
 400 412 400 412 401 413 c 0,40,41
 404 414 404 414 405 422 c 0,42,43
 417 500 417 500 423 691 c 0,44,45
 424 738 424 738 429 755 c 0,46,47
 434 775 434 775 438 775 c 0,48,49
 441 775 441 775 446 755 c 0,50,51
 452 738 452 738 452 691 c 0,52,53
 456 561 456 561 463 486 c 0,54,55
 469 429 469 429 471 416 c 0,56,57
 472 412 472 412 489 410 c 0,58,59
 495 409 495 409 498 409 c 256,60,61
 501 409 501 409 502 410 c 0,62,63
 504 415 504 415 511 465 c 0,64,65
 516 503 516 503 519 572 c 0,66,67
 525 691 525 691 533 691 c 2,68,-1
 534 691 l 1,69,70
 543 686 543 686 548 565 c 0,71,72
 550 510 550 510 554 471 c 0,73,74
 559 408 559 408 561 397 c 0,75,76
 562 395 562 395 578 389 c 256,77,78
 594 383 594 383 595 383 c 0,79,80
 596 385 596 385 609 452 c 0,81,82
 615 487 615 487 622 545 c 0,83,84
 625 572 625 572 627 576 c 2,85,-1
 629 580 l 1,86,-1
 631 577 l 2,87,88
 639 564 639 564 644 481 c 0,89,90
 650 364 650 364 650 342 c 2,91,-1
 650 337 l 2,92,93
 649 336 649 336 637 330 c 0,94,95
 557 284 557 284 518 209 c 0,96,97
 469 116 469 116 452 -43 c 0,98,99
 449 -68 449 -68 442 -73 c 0,100,101
 440 -75 440 -75 438 -75 c 0,102,103
 435 -75 435 -75 432 -72 c 0,104,0
 426 -67 426 -67 424 -47 c 0,1,2
EndSplineSet
EndChar

StartChar: macron
Encoding: 175 175 80
Width: 494
GlyphClass: 2
Flags: W
LayerCount: 2
Fore
SplineSet
110 547 m 1,0,-1
 110 609 l 1,1,-1
 391 609 l 1,2,-1
 391 547 l 1,3,-1
 110 547 l 1,0,-1
EndSplineSet
EndChar

StartChar: plusminus
Encoding: 177 177 81
Width: 500
GlyphClass: 2
Flags: W
LayerCount: 2
Fore
SplineSet
11 119 m 1,0,-1
 489 119 l 1,1,-1
 489 72 l 1,2,-1
 11 72 l 1,3,-1
 11 119 l 1,0,-1
11 391 m 1,4,-1
 226 391 l 1,5,-1
 226 593 l 1,6,-1
 273 593 l 1,7,-1
 273 392 l 1,8,-1
 489 392 l 1,9,-1
 489 345 l 1,10,-1
 274 345 l 1,11,-1
 274 160 l 1,12,-1
 227 160 l 1,13,-1
 227 345 l 1,14,-1
 11 345 l 1,15,-1
 11 391 l 1,4,-1
EndSplineSet
EndChar

StartChar: paragraph
Encoding: 182 182 82
Width: 875
GlyphClass: 2
Flags: W
LayerCount: 2
Fore
SplineSet
289 94 m 0,1,2
 274 108 274 108 272 108 c 1,3,4
 272 90 272 90 291 48 c 0,5,6
 301 27 301 27 301 22 c 0,7,8
 301 19 301 19 297 19 c 0,9,10
 296 19 296 19 293 20 c 0,11,12
 275 24 275 24 243 56 c 0,13,14
 208 90 208 90 186 138 c 0,15,16
 163 187 163 187 161 265 c 0,17,18
 159 297 159 297 159 310 c 0,19,20
 159 319 159 319 160 319 c 0,21,22
 162 319 162 319 183 298 c 0,23,24
 257 226 257 226 368 205 c 0,25,26
 405 198 405 198 439 198 c 0,27,28
 474 198 474 198 506 205 c 0,29,30
 614 228 614 228 682 292 c 0,31,32
 696 305 696 305 698 305 c 0,33,34
 699 305 699 305 699 304 c 0,35,36
 699 301 699 301 689 278 c 0,37,38
 631 152 631 152 480 138 c 1,39,-1
 460 135 l 1,40,-1
 470 128 l 2,41,42
 496 108 496 108 531 99 c 0,43,44
 552 93 552 93 575 93 c 0,45,46
 609 93 609 93 646 106 c 0,47,48
 777 151 777 151 838 261 c 0,49,50
 850 285 850 285 857 285 c 0,51,52
 859 285 859 285 859 284 c 0,53,54
 863 280 863 280 863 273 c 0,55,56
 863 248 863 248 823 179 c 0,57,58
 742 38 742 38 612 5 c 0,59,60
 572 -6 572 -6 532 -6 c 0,61,62
 508 -6 508 -6 486 -2 c 0,63,0
 371 15 371 15 289 94 c 0,1,2
372 319 m 0,65,66
 366 332 366 332 366 347 c 0,67,68
 366 356 366 356 368 366 c 0,69,70
 374 393 374 393 391 405 c 0,71,72
 412 422 412 422 435 422 c 0,73,74
 449 422 449 422 464 415 c 0,75,76
 501 400 501 400 507 357 c 0,77,78
 508 352 508 352 508 347 c 0,79,80
 508 305 508 305 465 286 c 0,81,82
 452 280 452 280 436 280 c 0,83,84
 424 280 424 280 412 283 c 0,85,64
 386 291 386 291 372 319 c 0,65,66
553 484 m 0,87,88
 497 502 497 502 439 502 c 0,89,90
 400 502 400 502 361 494 c 0,91,92
 260 474 260 474 192 411 c 0,93,94
 177 398 177 398 175 398 c 2,95,-1
 174 398 l 1,96,97
 174 415 174 415 204 459 c 0,98,99
 267 552 267 552 393 565 c 2,100,-1
 413 567 l 1,101,-1
 404 575 l 2,102,103
 378 594 378 594 342 603 c 0,104,105
 321 609 321 609 298 609 c 0,106,107
 265 609 265 609 228 597 c 0,108,109
 100 553 100 553 36 442 c 0,110,111
 24 422 24 422 19 418 c 1,112,-1
 16 418 l 2,113,114
 13 418 13 418 13 424 c 2,115,-1
 13 426 l 2,116,117
 14 452 14 452 39 501 c 0,118,119
 85 592 85 592 159 649 c 0,120,121
 203 683 203 683 262 698 c 0,122,123
 291 706 291 706 339 706 c 0,124,125
 388 706 388 706 416 699 c 0,126,127
 515 675 515 675 585 608 c 0,128,129
 599 594 599 594 601 594 c 2,130,-1
 602 594 l 1,131,132
 602 612 602 612 582 654 c 0,133,134
 573 675 573 675 573 680 c 0,135,136
 573 683 573 683 577 683 c 2,137,-1
 581 683 l 1,138,139
 599 678 599 678 631 646 c 0,140,141
 687 591 687 591 705 516 c 0,142,143
 710 496 710 496 713 444 c 0,144,145
 714 421 714 421 714 407 c 0,146,147
 714 389 714 389 712 386 c 0,148,149
 712 385 712 385 711 385 c 0,150,151
 707 385 707 385 695 398 c 0,152,86
 644 453 644 453 553 484 c 0,87,88
EndSplineSet
EndChar

StartChar: multiply
Encoding: 215 215 83
Width: 564
GlyphClass: 2
Flags: W
LayerCount: 2
Fore
SplineSet
522 61 m 1,0,-1
 473 13 l 1,1,-1
 281 204 l 1,2,-1
 90 13 l 1,3,-1
 42 61 l 1,4,-1
 232 253 l 1,5,-1
 42 444 l 1,6,-1
 90 493 l 1,7,-1
 281 302 l 1,8,-1
 473 493 l 1,9,-1
 522 444 l 1,10,-1
 330 253 l 1,11,-1
 522 61 l 1,0,-1
EndSplineSet
EndChar

StartChar: Oslash
Encoding: 216 216 84
Width: 875
GlyphClass: 2
Flags: W
LayerCount: 2
Fore
SplineSet
49 321 m 0,0,1
 49 482 49 482 163.5 596.5 c 128,-1,2
 278 711 278 711 440 711 c 0,3,4
 601 711 601 711 715.5 596.5 c 128,-1,5
 830 482 830 482 830 321 c 0,6,7
 830 159 830 159 715.5 44.5 c 128,-1,8
 601 -70 601 -70 440 -70 c 0,9,10
 278 -70 278 -70 163.5 44.5 c 128,-1,11
 49 159 49 159 49 321 c 0,0,1
EndSplineSet
EndChar

StartChar: ccedilla
Encoding: 231 231 85
Width: 875
GlyphClass: 2
Flags: W
LayerCount: 2
Fore
SplineSet
807 368 m 0,0,1
 807 346 807 346 800.5 335.5 c 128,-1,2
 794 325 794 325 761 292 c 0,3,4
 730 261 730 261 658 187 c 128,-1,5
 586 113 586 113 528.5 55.5 c 128,-1,6
 471 -2 471 -2 433 -36 c 0,7,8
 420 -49 420 -49 390 -49 c 0,9,10
 363 -49 363 -49 348 -36 c 0,11,12
 212 88 212 88 90 222 c 0,13,14
 76 238 76 238 76 267 c 0,15,16
 76 278 76 278 77.5 285.5 c 128,-1,17
 79 293 79 293 84 300.5 c 128,-1,18
 89 308 89 308 92.5 312 c 128,-1,19
 96 316 96 316 107.5 326.5 c 128,-1,20
 119 337 119 337 126 344 c 0,21,22
 331 556 331 556 454 672 c 0,23,24
 465 682 465 682 493 682 c 0,25,26
 494 682 494 682 497 682 c 0,27,28
 507 682 507 682 512 681 c 128,-1,29
 517 680 517 680 527.5 673 c 128,-1,30
 538 666 538 666 552 652 c 0,31,32
 561 643 561 643 656 549.5 c 128,-1,33
 751 456 751 456 797 406 c 0,34,35
 807 395 807 395 807 368 c 0,0,1
708 256 m 1,36,-1
 670 517 l 1,37,-1
 611 415 l 1,38,39
 486 493 486 493 386 493 c 0,40,41
 308 493 308 493 255.5 445.5 c 128,-1,42
 203 398 203 398 203 314 c 0,43,44
 203 247 203 247 247 153 c 128,-1,45
 291 59 291 59 351 -5 c 1,46,-1
 429 80 l 1,47,48
 382 129 382 129 350 195.5 c 128,-1,49
 318 262 318 262 318 312 c 0,50,51
 318 348 318 348 333.5 363 c 128,-1,52
 349 378 349 378 388 378 c 0,53,54
 466 378 466 378 528 331 c 1,55,56
 512 318 512 318 477 293 c 128,-1,57
 442 268 442 268 425 256 c 1,58,-1
 708 256 l 1,36,-1
EndSplineSet
EndChar

StartChar: divide
Encoding: 247 247 86
Width: 500
GlyphClass: 2
Flags: W
LayerCount: 2
Fore
SplineSet
11 365 m 1,0,-1
 489 365 l 1,1,-1
 489 318 l 1,2,-1
 11 318 l 1,3,-1
 11 365 l 1,0,-1
249 195 m 0,4,5
 267 195 267 195 279.5 182 c 128,-1,6
 292 169 292 169 292 152 c 0,7,8
 292 134 292 134 279.5 121.5 c 128,-1,9
 267 109 267 109 249 109 c 0,10,11
 232 109 232 109 219.5 121.5 c 128,-1,12
 207 134 207 134 207 152 c 0,13,14
 207 169 207 169 219.5 182 c 128,-1,15
 232 195 232 195 249 195 c 0,4,5
249 574 m 0,16,17
 267 574 267 574 279.5 561.5 c 128,-1,18
 292 549 292 549 292 532 c 0,19,20
 292 514 292 514 279.5 501.5 c 128,-1,21
 267 489 267 489 249 489 c 0,22,23
 232 489 232 489 219.5 501.5 c 128,-1,24
 207 514 207 514 207 532 c 0,25,26
 207 549 207 549 219.5 561.5 c 128,-1,27
 232 574 232 574 249 574 c 0,16,17
EndSplineSet
EndChar

StartChar: oslash
Encoding: 248 248 87
Width: 875
GlyphClass: 2
Flags: W
LayerCount: 2
Fore
SplineSet
49 321 m 0,0,1
 49 482 49 482 163.5 596.5 c 128,-1,2
 278 711 278 711 440 711 c 0,3,4
 601 711 601 711 715.5 596.5 c 128,-1,5
 830 482 830 482 830 321 c 0,6,7
 830 159 830 159 715.5 44.5 c 128,-1,8
 601 -70 601 -70 440 -70 c 0,9,10
 278 -70 278 -70 163.5 44.5 c 128,-1,11
 49 159 49 159 49 321 c 0,0,1
EndSplineSet
EndChar

StartChar: dotlessi
Encoding: 305 305 88
Width: 264
GlyphClass: 2
Flags: W
LayerCount: 2
Fore
SplineSet
181 450 m 1,0,-1
 181 129 l 2,1,2
 181 35 181 35 238 35 c 2,3,-1
 242 35 l 1,4,-1
 242 0 l 1,5,-1
 25 0 l 1,6,-1
 25 35 l 1,7,-1
 34 35 l 2,8,9
 69 35 69 35 84 57 c 128,-1,10
 99 79 99 79 99 128 c 2,11,-1
 99 342 l 1,12,-1
 25 382 l 1,13,-1
 25 400 l 1,14,-1
 157 450 l 1,15,-1
 181 450 l 1,0,-1
EndSplineSet
EndChar

StartChar: endash
Encoding: 8211 8211 89
Width: 500
GlyphClass: 2
Flags: W
LayerCount: 2
Fore
SplineSet
11 365 m 1,0,-1
 489 365 l 1,1,-1
 489 318 l 1,2,-1
 11 318 l 1,3,-1
 11 365 l 1,0,-1
EndSplineSet
EndChar

StartChar: emdash
Encoding: 8212 8212 90
Width: 977
GlyphClass: 2
Flags: W
LayerCount: 2
Fore
SplineSet
-5 266 m 1,0,-1
 983 266 l 1,1,-1
 983 222 l 1,2,-1
 -5 222 l 1,3,-1
 -5 266 l 1,0,-1
EndSplineSet
EndChar

StartChar: bullet
Encoding: 8226 8226 91
Width: 875
GlyphClass: 2
Flags: W
LayerCount: 2
Fore
SplineSet
261 92 m 1,0,-1
 261 120 l 1,1,-1
 311 171 l 2,2,3
 362 222 362 222 364 226 c 0,4,5
 367 230 367 230 367 243 c 256,6,7
 367 256 367 256 356 268 c 0,8,9
 344 279 344 279 331 279 c 0,10,11
 319 279 319 279 314 276 c 0,12,13
 310 274 310 274 259 223 c 2,14,-1
 208 173 l 1,15,-1
 180 173 l 1,16,-1
 96 256 l 2,17,18
 13 340 13 340 13 350 c 256,19,20
 13 360 13 360 96 444 c 2,21,-1
 180 527 l 1,22,-1
 208 527 l 1,23,-1
 259 477 l 2,24,25
 310 426 310 426 314 424 c 0,26,27
 318 421 318 421 331 421 c 0,28,29
 348 421 348 421 359 436 c 0,30,31
 367 447 367 447 367 459 c 0,32,33
 367 464 367 464 366 469 c 0,34,35
 364 476 364 476 313 528 c 2,36,-1
 261 580 l 1,37,-1
 261 608 l 1,38,-1
 344 692 l 2,39,40
 428 775 428 775 438 775 c 256,41,42
 448 775 448 775 532 692 c 2,43,-1
 615 608 l 1,44,-1
 615 580 l 1,45,-1
 565 529 l 2,46,47
 514 478 514 478 512 474 c 0,48,49
 509 470 509 470 509 457 c 0,50,51
 509 425 509 425 542 422 c 0,52,53
 547 421 547 421 551 421 c 0,54,55
 557 421 557 421 560 423 c 0,56,57
 565 426 565 426 617 476 c 2,58,-1
 668 527 l 1,59,-1
 696 527 l 1,60,-1
 780 444 l 2,61,62
 863 360 863 360 863 350 c 256,63,64
 863 340 863 340 780 256 c 2,65,-1
 696 173 l 1,66,-1
 668 173 l 1,67,-1
 617 223 l 2,68,69
 566 274 566 274 562 276 c 0,70,71
 558 279 558 279 545 279 c 256,72,73
 532 279 532 279 520 268 c 0,74,75
 509 256 509 256 509 243 c 0,76,77
 509 231 509 231 512 226 c 0,78,79
 514 222 514 222 565 171 c 2,80,-1
 615 120 l 1,81,-1
 615 92 l 1,82,-1
 532 8 l 2,83,84
 448 -75 448 -75 438 -75 c 256,85,86
 428 -75 428 -75 344 8 c 2,87,-1
 261 92 l 1,0,-1
581 315 m 1,88,-1
 632 264 l 1,89,-1
 683 213 l 1,90,-1
 752 281 l 1,91,-1
 820 350 l 1,92,-1
 752 419 l 1,93,-1
 683 487 l 1,94,-1
 632 436 l 1,95,-1
 581 385 l 1,96,-1
 295 385 l 1,97,-1
 244 436 l 1,98,-1
 193 487 l 1,99,-1
 125 419 l 1,100,-1
 57 351 l 1,101,-1
 125 282 l 1,102,-1
 194 214 l 1,103,-1
 244 264 l 1,104,-1
 295 315 l 1,105,-1
 581 315 l 1,88,-1
EndSplineSet
EndChar

StartChar: trademark
Encoding: 8482 8482 92
Width: 875
GlyphClass: 2
Flags: W
LayerCount: 2
Fore
SplineSet
185 -53 m 0,1,2
 185 -40 185 -40 207 -34 c 0,3,4
 219 -30 219 -30 249 -28 c 0,5,6
 280 -25 280 -25 296 -19 c 0,7,8
 356 3 356 3 375 39 c 0,9,10
 381 51 381 51 390 168 c 0,11,12
 392 188 392 188 392 201 c 0,13,14
 392 216 392 216 389 219 c 0,15,16
 384 224 384 224 340 246 c 0,17,18
 266 283 266 283 244 329 c 0,19,20
 209 400 209 400 180 513 c 0,21,22
 177 525 177 525 163 535 c 0,23,24
 149 546 149 546 143 558 c 0,25,26
 138 569 138 569 138 580 c 0,27,28
 138 601 138 601 158 619 c 2,29,-1
 171 631 l 1,30,-1
 171 651 l 2,31,32
 171 672 171 672 168 709 c 2,33,-1
 168 722 l 2,34,35
 168 760 168 760 183 769 c 0,36,37
 192 774 192 774 432 775 c 2,38,-1
 544 775 l 2,39,40
 638 775 638 775 661 774 c 0,41,42
 694 772 694 772 703 761 c 0,43,44
 707 755 707 755 707 723 c 0,45,46
 707 707 707 707 706 684 c 2,47,-1
 704 631 l 1,48,-1
 718 619 l 2,49,50
 738 601 738 601 738 580 c 0,51,52
 738 570 738 570 733 559 c 0,53,54
 728 547 728 547 713 536 c 0,55,56
 699 524 699 524 696 513 c 0,57,58
 667 400 667 400 633 331 c 0,59,60
 609 281 609 281 528 242 c 0,61,62
 492 225 492 225 487 219 c 0,63,64
 485 217 485 217 485 201 c 0,65,66
 485 180 485 180 489 133 c 0,67,68
 495 53 495 53 500 43 c 0,69,70
 518 -3 518 -3 591 -23 c 0,71,72
 607 -27 607 -27 632 -29 c 0,73,74
 675 -31 675 -31 686 -45 c 0,75,76
 689 -49 689 -49 689 -53 c 0,77,78
 689 -62 689 -62 674 -70 c 0,79,80
 664 -74 664 -74 444 -75 c 0,81,82
 224 -75 224 -75 209 -72 c 0,83,0
 185 -65 185 -65 185 -53 c 0,1,2
EndSplineSet
EndChar

StartChar: infinity
Encoding: 8734 8734 93
Width: 875
GlyphClass: 2
Flags: W
LayerCount: 2
Fore
SplineSet
379 -73 m 0,0,1
 379 -66 379 -66 434 22 c 0,2,3
 559 218 559 218 564 227 c 0,4,5
 568 235 568 235 568 241 c 0,6,7
 568 248 568 248 563 253 c 256,8,9
 558 258 558 258 551 259 c 2,10,-1
 550 259 l 2,11,12
 530 259 530 259 312 225 c 0,13,14
 156 200 156 200 147 200 c 0,15,16
 118 200 118 200 118 225 c 0,17,18
 118 241 118 241 238 452 c 0,19,20
 285 537 285 537 287 544 c 0,21,22
 289 549 289 549 289 552 c 256,23,24
 289 555 289 555 288 557 c 0,25,26
 285 569 285 569 264 569 c 0,27,28
 245 569 245 569 242 579 c 0,29,30
 240 584 240 584 240 589 c 0,31,32
 240 598 240 598 245 608 c 0,33,34
 290 697 290 697 334 754 c 0,35,36
 340 762 340 762 352 768 c 2,37,-1
 364 775 l 1,38,-1
 542 775 l 2,39,40
 720 775 720 775 727 770 c 0,41,42
 735 764 735 764 735 756 c 0,43,44
 735 750 735 750 730 743 c 0,45,46
 725 734 725 734 655 663 c 0,47,48
 626 633 626 633 576 580 c 0,49,50
 525 527 525 527 496 497 c 0,51,52
 369 366 369 366 369 358 c 0,53,54
 369 349 369 349 380 349 c 2,55,-1
 385 349 l 2,56,57
 402 350 402 350 499 370 c 0,58,59
 613 393 613 393 623 393 c 2,60,-1
 624 393 l 1,61,62
 640 389 640 389 654 346 c 0,63,64
 663 317 663 317 674 311 c 0,65,66
 682 306 682 306 701 306 c 0,67,68
 708 306 708 306 718 307 c 0,69,70
 727 308 727 308 734 308 c 0,71,72
 756 308 756 308 758 298 c 0,73,74
 758 287 758 287 714 245 c 0,75,76
 680 211 680 211 568 101 c 0,77,78
 458 -7 458 -7 445 -20 c 0,79,80
 400 -64 400 -64 391 -71 c 0,81,82
 386 -75 386 -75 383 -75 c 256,83,84
 380 -75 380 -75 379 -73 c 0,0,1
EndSplineSet
EndChar

StartChar: uni2605
Encoding: 9733 9733 94
Width: 510
GlyphClass: 2
Flags: W
LayerCount: 2
Fore
SplineSet
373 256 m 1,0,-1
 255 363 l 1,1,-1
 136 256 l 1,2,-1
 99 282 l 1,3,-1
 163 431 l 1,4,-1
 26 508 l 1,5,-1
 40 553 l 1,6,-1
 195 536 l 1,7,-1
 232 696 l 1,8,-1
 273 696 l 1,9,-1
 308 539 l 1,10,-1
 471 555 l 1,11,-1
 485 508 l 1,12,-1
 350 431 l 1,13,-1
 413 282 l 1,14,-1
 373 256 l 1,0,-1
EndSplineSet
EndChar
